<?xml version="1.0" encoding="utf-8"?>
<svg version="1.1" xmlns:xlink="http://www.w3.org/1999/xlink" width="14px" height="15px" xmlns="http://www.w3.org/2000/svg">
  <g transform="matrix(1 0 0 1 -1132 -224 )">
    <path d="M 1.076923076923077 11.517857142857142  L 1.076923076923077 13.928571428571429  L 3.5 13.928571428571429  L 3.5 11.517857142857142  L 1.076923076923077 11.517857142857142  Z M 4.038461538461538 11.517857142857142  L 4.038461538461538 13.928571428571429  L 6.730769230769231 13.928571428571429  L 6.730769230769231 11.517857142857142  L 4.038461538461538 11.517857142857142  Z M 1.076923076923077 8.303571428571429  L 1.076923076923077 10.982142857142858  L 3.5 10.982142857142858  L 3.5 8.303571428571429  L 1.076923076923077 8.303571428571429  Z M 4.038461538461538 8.303571428571429  L 4.038461538461538 10.982142857142858  L 6.730769230769231 10.982142857142858  L 6.730769230769231 8.303571428571429  L 4.038461538461538 8.303571428571429  Z M 1.076923076923077 5.357142857142857  L 1.076923076923077 7.767857142857142  L 3.5 7.767857142857142  L 3.5 5.357142857142857  L 1.076923076923077 5.357142857142857  Z M 7.26923076923077 11.517857142857142  L 7.26923076923077 13.928571428571429  L 9.961538461538462 13.928571428571429  L 9.961538461538462 11.517857142857142  L 7.26923076923077 11.517857142857142  Z M 4.038461538461538 5.357142857142857  L 4.038461538461538 7.767857142857142  L 6.730769230769231 7.767857142857142  L 6.730769230769231 5.357142857142857  L 4.038461538461538 5.357142857142857  Z M 10.5 11.517857142857142  L 10.5 13.928571428571429  L 12.923076923076923 13.928571428571429  L 12.923076923076923 11.517857142857142  L 10.5 11.517857142857142  Z M 7.26923076923077 8.303571428571429  L 7.26923076923077 10.982142857142858  L 9.961538461538462 10.982142857142858  L 9.961538461538462 8.303571428571429  L 7.26923076923077 8.303571428571429  Z M 4.227764423076923 3.938337053571429  C 4.28104967948718 3.8853236607142847  4.307692307692308 3.8225446428571415  4.307692307692308 3.75  L 4.307692307692308 1.3392857142857144  C 4.307692307692308 1.2667410714285716  4.28104967948718 1.203962053571428  4.227764423076923 1.1509486607142856  C 4.174479166666667 1.0979352678571415  4.111378205128205 1.071428571428571  4.038461538461538 1.071428571428571  L 3.5 1.071428571428571  C 3.4270833333333335 1.071428571428571  3.3639823717948723 1.0979352678571415  3.3106971153846154 1.1509486607142856  C 3.2574118589743586 1.203962053571428  3.230769230769231 1.2667410714285716  3.230769230769231 1.3392857142857144  L 3.230769230769231 3.75  C 3.230769230769231 3.8225446428571415  3.2574118589743586 3.8853236607142847  3.3106971153846154 3.938337053571429  C 3.3639823717948723 3.9913504464285716  3.4270833333333335 4.017857142857143  3.5 4.017857142857143  L 4.038461538461538 4.017857142857143  C 4.111378205128205 4.017857142857143  4.174479166666667 3.9913504464285716  4.227764423076923 3.938337053571429  Z M 10.5 8.303571428571429  L 10.5 10.982142857142858  L 12.923076923076923 10.982142857142858  L 12.923076923076923 8.303571428571429  L 10.5 8.303571428571429  Z M 7.26923076923077 5.357142857142857  L 7.26923076923077 7.767857142857142  L 9.961538461538462 7.767857142857142  L 9.961538461538462 5.357142857142857  L 7.26923076923077 5.357142857142857  Z M 10.5 5.357142857142857  L 10.5 7.767857142857142  L 12.923076923076923 7.767857142857142  L 12.923076923076923 5.357142857142857  L 10.5 5.357142857142857  Z M 10.689302884615383 3.938337053571429  C 10.742588141025642 3.8853236607142847  10.76923076923077 3.8225446428571415  10.76923076923077 3.75  L 10.76923076923077 1.3392857142857144  C 10.76923076923077 1.2667410714285716  10.742588141025642 1.203962053571428  10.689302884615383 1.1509486607142856  C 10.63601762820513 1.0979352678571415  10.572916666666668 1.071428571428571  10.5 1.071428571428571  L 9.961538461538462 1.071428571428571  C 9.888621794871796 1.071428571428571  9.825520833333334 1.0979352678571415  9.772235576923077 1.1509486607142856  C 9.718950320512821 1.203962053571428  9.692307692307692 1.2667410714285716  9.692307692307692 1.3392857142857144  L 9.692307692307692 3.75  C 9.692307692307692 3.8225446428571415  9.718950320512821 3.8853236607142847  9.772235576923077 3.938337053571429  C 9.825520833333334 3.9913504464285716  9.888621794871796 4.017857142857143  9.961538461538462 4.017857142857143  L 10.5 4.017857142857143  C 10.572916666666668 4.017857142857143  10.63601762820513 3.9913504464285716  10.689302884615383 3.938337053571429  Z M 13.680288461538462 2.4609375  C 13.893429487179489 2.6729910714285716  14 2.9241071428571423  14 3.2142857142857144  L 14 13.928571428571429  C 14 14.218750000000002  13.893429487179489 14.469866071428573  13.680288461538462 14.681919642857144  C 13.467147435897438 14.893973214285714  13.214743589743591 15  12.923076923076923 15  L 1.076923076923077 15  C 0.7852564102564104 15  0.5328525641025641 14.893973214285714  0.31971153846153844 14.681919642857144  C 0.10657051282051282 14.469866071428573  0 14.218750000000002  0 13.928571428571429  L 0 3.2142857142857144  C 0 2.9241071428571423  0.10657051282051282 2.6729910714285716  0.31971153846153844 2.4609375  C 0.5328525641025641 2.248883928571427  0.7852564102564104 2.1428571428571437  1.076923076923077 2.1428571428571437  L 2.153846153846154 2.1428571428571437  L 2.153846153846154 1.3392857142857144  C 2.153846153846154 0.9709821428571436  2.285657051282051 0.6556919642857134  2.549278846153846 0.39341517857142905  C 2.8129006410256414 0.13113839285714302  3.1298076923076925 0  3.5 0  L 4.038461538461538 0  C 4.408653846153846 0  4.725560897435898 0.13113839285714302  4.989182692307692 0.39341517857142905  C 5.252804487179487 0.6556919642857134  5.384615384615385 0.9709821428571436  5.384615384615385 1.3392857142857144  L 5.384615384615385 2.1428571428571437  L 8.615384615384617 2.1428571428571437  L 8.615384615384617 1.3392857142857144  C 8.615384615384617 0.9709821428571436  8.747195512820513 0.6556919642857134  9.010817307692308 0.39341517857142905  C 9.274439102564104 0.13113839285714302  9.591346153846153 0  9.961538461538462 0  L 10.5 0  C 10.870192307692308 0  11.18709935897436 0.13113839285714302  11.450721153846153 0.39341517857142905  C 11.71434294871795 0.6556919642857134  11.846153846153847 0.9709821428571436  11.846153846153847 1.3392857142857144  L 11.846153846153847 2.1428571428571437  L 12.923076923076923 2.1428571428571437  C 13.214743589743591 2.1428571428571437  13.467147435897438 2.248883928571427  13.680288461538462 2.4609375  Z " fill-rule="nonzero" fill="#000000" stroke="none" transform="matrix(1 0 0 1 1132 224 )" />
  </g>
</svg>