<?xml version="1.0" encoding="utf-8"?>
<svg version="1.1" xmlns:xlink="http://www.w3.org/1999/xlink" width="15px" height="15px" xmlns="http://www.w3.org/2000/svg">
  <g transform="matrix(1 0 0 1 -1007 -224 )">
    <path d="M 9.267578125 9.267578125000002  C 9.755859375 8.779296874999998  10 8.190104166666666  10 7.5  C 10 6.809895833333332  9.755859375 6.220703124999999  9.267578125 5.732421875000001  C 8.779296875 5.244140625  8.190104166666668 5.000000000000001  7.5 5.000000000000001  C 6.809895833333334 5.000000000000001  6.220703125 5.244140625  5.732421875 5.732421875000001  C 5.244140625 6.220703124999999  5 6.809895833333332  5 7.5  C 5 8.190104166666666  5.244140625 8.779296874999998  5.732421875 9.267578125000002  C 6.220703125 9.755859375  6.809895833333334 10.000000000000002  7.5 10.000000000000002  C 8.190104166666668 10.000000000000002  8.779296875 9.755859375  9.267578125 9.267578125000002  Z M 14.921875 6.206054687499999  C 14.973958333333332 6.274414062500001  15 6.350911458333333  15 6.435546875000001  L 15 8.603515624999998  C 15 8.681640625000002  14.973958333333332 8.756510416666668  14.921875 8.828125000000002  C 14.869791666666668 8.899739583333332  14.8046875 8.942057291666664  14.7265625 8.955078124999998  L 12.919921875 9.228515625  C 12.796223958333336 9.580078125  12.669270833333336 9.876302083333332  12.5390625 10.117187500000002  C 12.766927083333336 10.442708333333334  13.115234375 10.891927083333332  13.583984375 11.46484375  C 13.649088541666668 11.54296875  13.681640625 11.624348958333334  13.681640625 11.708984375  C 13.681640625 11.793619791666668  13.65234375 11.868489583333332  13.59375 11.93359375  C 13.41796875 12.174479166666668  13.095703125 12.526041666666668  12.626953125 12.98828125  C 12.158203125 13.450520833333332  11.852213541666668 13.681640625  11.708984375 13.681640625  C 11.630859375 13.681640625  11.546223958333334 13.65234375  11.455078125 13.59375  L 10.107421875 12.5390625  C 9.820963541666666 12.688802083333332  9.524739583333334 12.8125  9.21875 12.91015625  C 9.114583333333334 13.795572916666668  9.020182291666668 14.401041666666668  8.935546875 14.7265625  C 8.889973958333334 14.908854166666668  8.772786458333334 15  8.583984375 15  L 6.416015625 15  C 6.324869791666668 15  6.2451171875 14.972330729166668  6.1767578125 14.9169921875  C 6.1083984375 14.861653645833334  6.070963541666668 14.791666666666668  6.064453125 14.70703125  L 5.791015625 12.91015625  C 5.472005208333334 12.805989583333332  5.179036458333334 12.685546875  4.912109375 12.548828125  L 3.53515625 13.59375  C 3.470052083333334 13.65234375  3.388671875 13.681640625  3.291015625 13.681640625  C 3.199869791666667 13.681640625  3.118489583333334 13.645833333333334  3.046875 13.57421875  C 2.2265625 12.83203125  1.689453125 12.28515625  1.435546875 11.93359375  C 1.3899739583333335 11.868489583333332  1.3671875 11.793619791666668  1.3671875 11.708984375  C 1.3671875 11.630859375  1.393229166666667 11.555989583333332  1.4453125 11.484375  C 1.54296875 11.34765625  1.708984375 11.131184895833334  1.9433593749999998 10.834960937500002  C 2.177734375 10.538736979166664  2.353515625 10.309244791666664  2.470703125 10.146484375000002  C 2.294921875 9.820963541666664  2.1614583333333335 9.498697916666664  2.0703125 9.179687500000002  L 0.283203125 8.916015625000002  C 0.19856770833333337 8.902994791666668  0.13020833333333334 8.8623046875  0.078125 8.793945312499998  C 0.026041666666666664 8.725585937500002  0 8.649088541666664  0 8.564453125000002  L 0 6.396484374999999  C 0 6.318359375000001  0.026041666666666664 6.243489583333332  0.078125 6.171875000000001  C 0.13020833333333334 6.100260416666667  0.19205729166666669 6.057942708333333  0.263671875 6.044921874999999  L 2.080078125 5.771484375  C 2.1712239583333335 5.472005208333333  2.2981770833333335 5.172526041666666  2.4609375 4.873046874999999  C 2.2005208333333335 4.501953125000001  1.852213541666667 4.052734374999999  1.416015625 3.5253906249999996  C 1.3509114583333335 3.4472656250000004  1.318359375 3.369140625  1.318359375 3.2910156249999996  C 1.318359375 3.2259114583333326  1.34765625 3.1510416666666647  1.40625 3.0664062500000004  C 1.5755208333333333 2.8320312500000004  1.896158854166667 2.482096354166665  2.3681640625 2.0166015624999996  C 2.840169270833334 1.5511067708333321  3.147786458333334 1.318359375  3.291015625 1.318359375  C 3.375651041666667 1.318359375  3.460286458333334 1.3509114583333326  3.544921875 1.4160156249999996  L 4.892578125 2.4609375  C 5.179036458333334 2.3111979166666656  5.475260416666668 2.1875000000000004  5.78125 2.0898437499999996  C 5.885416666666668 1.2044270833333326  5.979817708333333 0.598958333333332  6.064453125 0.27343749999999944  C 6.110026041666667 0.0911458333333326  6.227213541666667 0  6.416015625 0  L 8.583984375 0  C 8.675130208333334 0  8.7548828125 0.027669270833332038  8.8232421875 0.08300781249999944  C 8.8916015625 0.1383463541666652  8.929036458333334 0.2083333333333326  8.935546875 0.29296875  L 9.208984375 2.0898437499999996  C 9.527994791666666 2.1940104166666656  9.820963541666666 2.314453125  10.087890625 2.4511718750000004  L 11.474609375 1.40625  C 11.533203125 1.34765625  11.611328125 1.318359375  11.708984375 1.318359375  C 11.793619791666668 1.318359375  11.875 1.3509114583333326  11.953125 1.4160156249999996  C 12.79296875 2.190755208333333  13.330078125 2.7441406250000004  13.564453125 3.076171875  C 13.610026041666668 3.128255208333333  13.6328125 3.199869791666665  13.6328125 3.2910156249999996  C 13.6328125 3.369140625  13.606770833333336 3.4440104166666647  13.5546875 3.515625  C 13.45703125 3.6523437500000004  13.291015625 3.8688151041666647  13.056640625 4.165039062500001  C 12.822265625 4.461263020833333  12.646484375 4.690755208333332  12.529296875 4.853515625000001  C 12.698567708333336 5.179036458333333  12.83203125 5.498046874999999  12.9296875 5.810546874999999  L 14.716796875 6.083984375000001  C 14.801432291666666 6.097005208333332  14.869791666666668 6.137695312499998  14.921875 6.206054687499999  Z " fill-rule="nonzero" fill="#000000" stroke="none" transform="matrix(1 0 0 1 1007 224 )" />
  </g>
</svg>