<?xml version="1.0" encoding="utf-8"?>
<svg version="1.1" xmlns:xlink="http://www.w3.org/1999/xlink" width="10px" height="8px" xmlns="http://www.w3.org/2000/svg">
  <g transform="matrix(1 0 0 1 -791 -1608 )">
    <path d="M 9.441964285714286 3.0738636363636367  C 9.654017857142858 2.9261363636363633  9.840029761904763 2.7613636363636367  10 2.579545454545454  L 10 7.090909090909091  C 10 7.340909090909091  9.912574404761905 7.554924242424243  9.737723214285714 7.732954545454546  C 9.562872023809526 7.910984848484848  9.352678571428573 8  9.107142857142858 8  L 0.8928571428571429 8  C 0.6473214285714286 8  0.4371279761904762 7.910984848484848  0.26227678571428575 7.732954545454546  C 0.08742559523809527 7.554924242424243  0 7.340909090909091  0 7.090909090909091  L 0 2.579545454545454  C 0.16369047619047622 2.7651515151515147  0.35156250000000006 2.9299242424242413  0.5636160714285714 3.0738636363636367  C 1.9103422619047623 4.005681818181818  2.8348214285714284 4.659090909090909  3.3370535714285716 5.034090909090909  C 3.5491071428571432 5.193181818181818  3.721168154761905 5.317234848484848  3.8532366071428568 5.40625  C 3.9853050595238098 5.4952651515151505  4.16108630952381 5.586174242424242  4.380580357142857 5.678977272727273  C 4.600074404761905 5.771780303030303  4.8046875 5.818181818181818  4.994419642857143 5.818181818181818  L 5 5.818181818181818  L 5.005580357142857 5.818181818181818  C 5.195312500000001 5.818181818181818  5.399925595238095 5.771780303030303  5.619419642857143 5.678977272727273  C 5.838913690476192 5.586174242424242  6.014694940476192 5.4952651515151505  6.146763392857143 5.40625  C 6.278831845238095 5.317234848484848  6.450892857142857 5.193181818181818  6.662946428571429 5.034090909090909  C 7.295386904761906 4.568181818181818  8.221726190476192 3.9147727272727275  9.441964285714286 3.0738636363636367  Z M 9.734933035714286 0.26704545454545414  C 9.911644345238095 0.4450757575757569  10 0.6590909090909092  10 0.9090909090909092  C 10 1.2083333333333321  9.908854166666668 1.4943181818181817  9.7265625 1.7670454545454541  C 9.544270833333334 2.0397727272727275  9.31733630952381 2.2727272727272725  9.045758928571429 2.465909090909091  C 7.646949404761906 3.454545454545454  6.776413690476192 4.070075757575758  6.4341517857142865 4.3125  C 6.396949404761906 4.339015151515151  6.317894345238095 4.396780303030303  6.196986607142857 4.485795454545455  C 6.0760788690476195 4.5748106060606055  5.975632440476192 4.646780303030303  5.895647321428571 4.701704545454545  C 5.8156622023809526 4.756628787878787  5.718936011904763 4.818181818181818  5.60546875 4.886363636363637  C 5.492001488095238 4.954545454545455  5.385044642857143 5.005681818181818  5.2845982142857135 5.039772727272727  C 5.1841517857142865 5.073863636363637  5.091145833333334 5.090909090909091  5.005580357142857 5.090909090909091  L 5 5.090909090909091  L 4.994419642857143 5.090909090909091  C 4.908854166666667 5.090909090909091  4.815848214285714 5.073863636363637  4.715401785714286 5.039772727272727  C 4.614955357142857 5.005681818181818  4.507998511904762 4.954545454545455  4.39453125 4.886363636363637  C 4.281063988095238 4.818181818181818  4.1843377976190474 4.756628787878787  4.104352678571429 4.701704545454545  C 4.02436755952381 4.646780303030303  3.9239211309523814 4.5748106060606055  3.8030133928571432 4.485795454545455  C 3.682105654761905 4.396780303030303  3.603050595238096 4.339015151515151  3.5658482142857144 4.3125  C 3.2273065476190474 4.070075757575758  2.7399553571428568 3.7244318181818183  2.103794642857143 3.2755681818181817  C 1.4676339285714284 2.826704545454545  1.086309523809524 2.5568181818181808  0.9598214285714286 2.465909090909091  C 0.7291666666666667 2.3068181818181808  0.5115327380952382 2.0880681818181817  0.3069196428571429 1.8096590909090908  C 0.10230654761904766 1.53125  0 1.2727272727272725  0 1.0340909090909092  C 0 0.7386363636363633  0.07719494047619051 0.4924242424242413  0.23158482142857148 0.29545454545454586  C 0.38597470238095244 0.09848484848484773  0.6063988095238096 0  0.8928571428571429 0  L 9.107142857142858 0  C 9.348958333333334 0  9.558221726190476 0.08901515151515049  9.734933035714286 0.26704545454545414  Z " fill-rule="nonzero" fill="#ffffff" stroke="none" transform="matrix(1 0 0 1 791 1608 )" />
  </g>
</svg>