<?xml version="1.0" encoding="utf-8"?>
<svg version="1.1" xmlns:xlink="http://www.w3.org/1999/xlink" width="10px" height="10px" xmlns="http://www.w3.org/2000/svg">
  <g transform="matrix(1 0 0 1 -187 -1799 )">
    <path d="M 9.978693181818182 7.748579545454546  C 9.992897727272727 7.781723484848484  10 7.831439393939393  10 7.897727272727273  C 10 8.025568181818182  9.976325757575758 8.19247159090909  9.928977272727273 8.3984375  C 9.881628787878789 8.60440340909091  9.831912878787879 8.766571969696969  9.779829545454547 8.884943181818182  C 9.680397727272727 9.121685606060606  9.39157196969697 9.372632575757576  8.913352272727273 9.63778409090909  C 8.468276515151516 9.879261363636363  8.027935606060607 10  7.592329545454546 10  C 7.464488636363637 10  7.339015151515152 9.991714015151516  7.215909090909091 9.975142045454547  C 7.092803030303031 9.958570075757576  6.956676136363638 9.928977272727273  6.807528409090909 9.886363636363637  C 6.6583806818181825 9.84375  6.547111742424243 9.809422348484848  6.473721590909091 9.783380681818182  C 6.40033143939394 9.757339015151516  6.2689393939393945 9.708806818181818  6.079545454545454 9.63778409090909  C 5.890151515151516 9.566761363636363  5.774147727272728 9.524147727272727  5.731534090909091 9.509943181818182  C 5.26751893939394 9.344223484848484  4.853219696969697 9.147727272727273  4.488636363636363 8.920454545454547  C 3.887310606060606 8.546401515151516  3.262310606060606 8.035037878787879  2.6136363636363633 7.386363636363637  C 1.9649621212121213 6.737689393939393  1.453598484848485 6.1126893939393945  1.0795454545454546 5.511363636363637  C 0.8522727272727272 5.146780303030303  0.6557765151515151 4.73248106060606  0.4900568181818182 4.268465909090909  C 0.4758522727272727 4.225852272727272  0.4332386363636364 4.109848484848484  0.3622159090909091 3.920454545454546  C 0.2911931818181818 3.7310606060606055  0.24266098484848486 3.5996685606060597  0.2166193181818182 3.526278409090909  C 0.19057765151515152 3.452888257575757  0.15625 3.3416193181818175  0.11363636363636365 3.192471590909091  C 0.07102272727272727 3.0433238636363624  0.04142992424242425 2.907196969696969  0.024857954545454544 2.784090909090909  C 0.008285984848484848 2.6609848484848477  0 2.5355113636363633  0 2.407670454545454  C 0 1.9720643939393934  0.12073863636363635 1.531723484848484  0.3622159090909091 1.086647727272727  C 0.6273674242424243 0.6084280303030287  0.8783143939393939 0.31960227272727293  1.1150568181818183 0.22017045454545414  C 1.2334280303030303 0.16808712121212044  1.3955965909090908 0.11837121212121104  1.6015625 0.07102272727272707  C 1.8075284090909092 0.023674242424241987  1.9744318181818183 0  2.1022727272727275 0  C 2.1685606060606064 0  2.2182765151515156 0.007102272727272929  2.2514204545454546 0.021306818181817677  C 2.3366477272727275 0.049715909090909394  2.462121212121212 0.22964015151515138  2.6278409090909087 0.5610795454545459  C 2.6799242424242427 0.6510416666666652  2.75094696969697 0.7788825757575746  2.8409090909090913 0.9446022727272729  C 2.930871212121212 1.110321969696969  3.0137310606060606 1.2606534090909094  3.0894886363636367 1.3955965909090906  C 3.165246212121212 1.530539772727273  3.2386363636363633 1.657196969696969  3.3096590909090913 1.7755681818181823  C 3.3238636363636367 1.7945075757575746  3.3652935606060606 1.8536931818181823  3.4339488636363633 1.953125  C 3.5026041666666674 2.0525568181818175  3.5535037878787885 2.1366003787878785  3.586647727272727 2.2052556818181825  C 3.619791666666667 2.273910984848484  3.6363636363636367 2.3413825757575744  3.6363636363636367 2.407670454545454  C 3.6363636363636367 2.502367424242423  3.5688920454545454 2.6207386363636367  3.4339488636363633 2.762784090909091  C 3.2990056818181817 2.904829545454546  3.152225378787879 3.0350378787878785  2.9936079545454546 3.153409090909091  C 2.8349905303030303 3.271780303030302  2.688210227272727 3.397253787878788  2.5532670454545454 3.529829545454546  C 2.4183238636363633 3.6624053030303028  2.3508522727272725 3.7713068181818175  2.3508522727272725 3.856534090909091  C 2.3508522727272725 3.899147727272727  2.362689393939394 3.952414772727273  2.3863636363636367 4.016335227272727  C 2.410037878787879 4.0802556818181825  2.4301609848484853 4.128787878787879  2.4467329545454546 4.1619318181818175  C 2.4633049242424248 4.195075757575757  2.4964488636363633 4.2518939393939394  2.546164772727273 4.332386363636363  C 2.5958806818181817 4.412878787878788  2.6231060606060606 4.457859848484849  2.6278409090909087 4.467329545454546  C 2.987689393939394 5.116003787878787  3.399621212121212 5.672348484848484  3.8636363636363633 6.136363636363637  C 4.327651515151516 6.600378787878787  4.883996212121213 7.0123106060606055  5.532670454545454 7.372159090909092  C 5.542140151515151 7.376893939393938  5.587121212121212 7.404119318181818  5.667613636363637 7.453835227272727  C 5.7481060606060606 7.503551136363637  5.804924242424243 7.536695075757574  5.8380681818181825 7.553267045454546  C 5.871212121212121 7.569839015151515  5.9197443181818175 7.58996212121212  5.983664772727273 7.613636363636363  C 6.047585227272727 7.6373106060606055  6.100852272727273 7.649147727272727  6.143465909090909 7.649147727272727  C 6.2286931818181825 7.649147727272727  6.337594696969697 7.581676136363637  6.470170454545454 7.446732954545454  C 6.602746212121212 7.311789772727273  6.728219696969698 7.165009469696969  6.846590909090909 7.006392045454546  C 6.964962121212121 6.847774621212119  7.095170454545454 6.700994318181818  7.237215909090909 6.566051136363637  C 7.379261363636363 6.431107954545454  7.497632575757577 6.363636363636363  7.592329545454546 6.363636363636363  C 7.658617424242426 6.363636363636363  7.726089015151516 6.380208333333332  7.7947443181818175 6.413352272727273  C 7.863399621212121 6.446496212121211  7.9474431818181825 6.497395833333332  8.046875 6.566051136363637  C 8.146306818181818 6.634706439393938  8.205492424242426 6.676136363636363  8.224431818181818 6.690340909090908  C 8.342803030303031 6.761363636363637  8.469460227272727 6.834753787878787  8.60440340909091 6.910511363636363  C 8.73934659090909 6.986268939393938  8.889678030303031 7.069128787878787  9.055397727272727 7.159090909090908  C 9.221117424242426 7.249053030303029  9.348958333333336 7.320075757575757  9.438920454545453 7.372159090909092  C 9.770359848484848 7.537878787878787  9.95028409090909 7.663352272727273  9.978693181818182 7.748579545454546  Z " fill-rule="nonzero" fill="#ffffff" stroke="none" transform="matrix(1 0 0 1 187 1799 )" />
  </g>
</svg>