<?xml version="1.0" encoding="utf-8"?>
<svg version="1.1" xmlns:xlink="http://www.w3.org/1999/xlink" width="25px" height="25px" xmlns="http://www.w3.org/2000/svg">
  <g transform="matrix(1 0 0 1 -1055 -849 )">
    <path d="M 1069.8819660112501 849.5  C 1069.8819660112501 849.5  1072.1576291755089 850.6378315821294  1072.1576291755089 850.6378315821294  C 1072.1576291755089 850.6378315821294  1079.3990747874227 861.5  1079.3990747874227 861.5  C 1079.3990747874227 861.5  1072.1576291755089 872.3621684178706  1072.1576291755089 872.3621684178706  C 1072.1576291755089 872.3621684178706  1069.8819660112501 873.5  1069.8819660112501 873.5  C 1069.8819660112501 873.5  1055.5 873.5  1055.5 873.5  C 1055.5 873.5  1055.5 849.5  1055.5 849.5  C 1055.5 849.5  1069.8819660112501 849.5  1069.8819660112501 849.5  Z " fill-rule="nonzero" fill="#f3f4f7" stroke="none" />
    <path d="M 1069.8819660112501 849.5  C 1069.8819660112501 849.5  1072.1576291755089 850.6378315821294  1072.1576291755089 850.6378315821294  C 1072.1576291755089 850.6378315821294  1079.3990747874227 861.5  1079.3990747874227 861.5  C 1079.3990747874227 861.5  1072.1576291755089 872.3621684178706  1072.1576291755089 872.3621684178706  C 1072.1576291755089 872.3621684178706  1069.8819660112501 873.5  1069.8819660112501 873.5  C 1069.8819660112501 873.5  1055.5 873.5  1055.5 873.5  C 1055.5 873.5  1055.5 849.5  1055.5 849.5  C 1055.5 849.5  1069.8819660112501 849.5  1069.8819660112501 849.5  Z " stroke-width="1" stroke="#f3f4f7" fill="none" />
  </g>
</svg>