<?xml version="1.0" encoding="utf-8"?>
<svg version="1.1" xmlns:xlink="http://www.w3.org/1999/xlink" width="25px" height="25px" xmlns="http://www.w3.org/2000/svg">
  <g transform="matrix(1 0 0 1 -1343 -1924 )">
    <path d="M 1355.5 1924  C 1362.5 1924  1368 1929.5  1368 1936.5  C 1368 1943.5  1362.5 1949  1355.5 1949  C 1348.5 1949  1343 1943.5  1343 1936.5  C 1343 1929.5  1348.5 1924  1355.5 1924  Z " fill-rule="nonzero" fill="#f2f2f2" stroke="none" />
    <path d="M 1355.5 1924.5  C 1362.22 1924.5  1367.5 1929.78  1367.5 1936.5  C 1367.5 1943.22  1362.22 1948.5  1355.5 1948.5  C 1348.78 1948.5  1343.5 1943.22  1343.5 1936.5  C 1343.5 1929.78  1348.78 1924.5  1355.5 1924.5  Z " stroke-width="1" stroke="#f2f2f2" fill="none" />
  </g>
</svg>