<?xml version="1.0" encoding="utf-8"?>
<svg version="1.1" xmlns:xlink="http://www.w3.org/1999/xlink" width="30px" height="30px" xmlns="http://www.w3.org/2000/svg">
  <g transform="matrix(1 0 0 1 -277 -3133 )">
    <path d="M 292 3133  C 300.4 3133  307 3139.6  307 3148  C 307 3156.4  300.4 3163  292 3163  C 283.6 3163  277 3156.4  277 3148  C 277 3139.6  283.6 3133  292 3133  Z " fill-rule="nonzero" fill="#02b388" stroke="none" />
    <path d="M 292 3133.5  C 300.12 3133.5  306.5 3139.88  306.5 3148  C 306.5 3156.12  300.12 3162.5  292 3162.5  C 283.88 3162.5  277.5 3156.12  277.5 3148  C 277.5 3139.88  283.88 3133.5  292 3133.5  Z " stroke-width="1" stroke="#02b388" fill="none" />
  </g>
</svg>