<?xml version="1.0" encoding="utf-8"?>
<svg version="1.1" xmlns:xlink="http://www.w3.org/1999/xlink" width="15px" height="15px" xmlns="http://www.w3.org/2000/svg">
  <g transform="matrix(1 0 0 1 -440 -1496 )">
    <path d="M 6.25 11.62109375  C 6.419270833333333 11.62109375  6.565755208333333 11.559244791666668  6.689453125 11.435546875  L 12.685546875 5.439453125000001  C 12.809244791666666 5.315755208333332  12.87109375 5.169270833333332  12.87109375 5.000000000000001  C 12.87109375 4.830729166666666  12.809244791666666 4.684244791666666  12.685546875 4.560546875000001  L 11.689453125 3.5644531250000004  C 11.565755208333336 3.440755208333332  11.419270833333336 3.3789062499999996  11.25 3.3789062499999996  C 11.080729166666666 3.3789062499999996  10.934244791666666 3.440755208333332  10.810546875 3.5644531250000004  L 6.25 8.125000000000002  L 4.189453125 6.064453125  C 4.065755208333334 5.940755208333333  3.919270833333334 5.878906250000001  3.75 5.878906250000001  C 3.580729166666667 5.878906250000001  3.434244791666667 5.940755208333333  3.310546875 6.064453125  L 2.314453125 7.060546875  C 2.1907552083333335 7.184244791666667  2.12890625 7.330729166666667  2.12890625 7.5  C 2.12890625 7.669270833333331  2.1907552083333335 7.815755208333331  2.314453125 7.939453125  L 5.810546875 11.435546875  C 5.934244791666667 11.559244791666668  6.080729166666667 11.62109375  6.25 11.62109375  Z M 14.1748046875 0.8251953125000006  C 14.724934895833332 1.3753255208333321  15 2.0377604166666647  15 2.8125  L 15 12.1875  C 15 12.962239583333332  14.724934895833332 13.624674479166668  14.1748046875 14.1748046875  C 13.624674479166668 14.724934895833332  12.962239583333336 15  12.1875 15  L 2.8125 15  C 2.0377604166666665 15  1.3753255208333335 14.724934895833332  0.8251953125 14.1748046875  C 0.27506510416666663 13.624674479166668  0 12.962239583333332  0 12.1875  L 0 2.8125  C 0 2.0377604166666647  0.27506510416666663 1.3753255208333321  0.8251953125 0.8251953125000006  C 1.3753255208333335 0.27506510416666574  2.0377604166666665 0  2.8125 0  L 12.1875 0  C 12.962239583333336 0  13.624674479166668 0.27506510416666574  14.1748046875 0.8251953125000006  Z " fill-rule="nonzero" fill="#0578f8" stroke="none" transform="matrix(1 0 0 1 440 1496 )" />
  </g>
</svg>