<?xml version="1.0" encoding="utf-8"?>
<svg version="1.1" xmlns:xlink="http://www.w3.org/1999/xlink" width="25px" height="25px" xmlns="http://www.w3.org/2000/svg">
  <g transform="matrix(1 0 0 1 -244 -301 )">
    <path d="M 24.946732954545457 19.371448863636363  C 24.982244318181817 19.45430871212121  25 19.57859848484848  25 19.744318181818183  C 25 20.063920454545453  24.940814393939394 20.481178977272727  24.822443181818183 20.99609375  C 24.704071969696972 21.511008522727273  24.5797821969697 21.916429924242422  24.449573863636363 22.212357954545453  C 24.200994318181817 22.804214015151516  23.47892992424243 23.431581439393938  22.283380681818183 24.094460227272727  C 21.17069128787879 24.69815340909091  20.069839015151516 25  18.980823863636363 25  C 18.66122159090909 25  18.347537878787882 24.97928503787879  18.039772727272727 24.937855113636363  C 17.732007575757578 24.89642518939394  17.391690340909093 24.822443181818183  17.018821022727273 24.71590909090909  C 16.645951704545457 24.609375  16.36777935606061 24.52355587121212  16.184303977272727 24.458451704545457  C 16.00082859848485 24.39334753787879  15.672348484848486 24.272017045454543  15.198863636363635 24.094460227272727  C 14.72537878787879 23.91690340909091  14.43536931818182 23.810369318181817  14.328835227272727 23.774857954545457  C 13.168797348484851 23.36055871212121  12.133049242424242 22.869318181818183  11.221590909090908 22.301136363636363  C 9.718276515151516 21.36600378787879  8.155776515151516 20.087594696969695  6.534090909090909 18.46590909090909  C 4.912405303030303 16.84422348484848  3.633996212121213 15.281723484848486  2.6988636363636362 13.778409090909092  C 2.130681818181818 12.866950757575758  1.639441287878788 11.831202651515149  1.2251420454545454 10.671164772727273  C 1.1896306818181819 10.56463068181818  1.083096590909091 10.27462121212121  0.9055397727272728 9.801136363636365  C 0.7279829545454545 9.327651515151514  0.6066524621212122 8.999171401515149  0.5415482954545455 8.815696022727273  C 0.4764441287878788 8.632220643939393  0.390625 8.354048295454545  0.2840909090909091 7.981178977272727  C 0.17755681818181818 7.6083096590909065  0.10357481060606062 7.267992424242423  0.06214488636363636 6.960227272727273  C 0.02071496212121212 6.652462121212118  0 6.338778409090909  0 6.019176136363635  C 0 4.9301609848484835  0.3018465909090909 3.82930871212121  0.9055397727272728 2.7166193181818175  C 1.5684185606060608 1.5210700757575717  2.195785984848485 0.7990056818181823  2.7876420454545454 0.5504261363636354  C 3.083570075757576 0.4202178030303011  3.488991477272727 0.2959280303030276  4.00390625 0.17755681818181768  C 4.5188210227272725 0.05918560606060497  4.936079545454546 0  5.255681818181818 0  C 5.421401515151516 0  5.545691287878789 0.017755681818182323  5.628551136363636 0.05326704545454419  C 5.841619318181818 0.12428977272727348  6.15530303030303 0.5741003787878785  6.5696022727272725 1.4026988636363646  C 6.699810606060606 1.627604166666663  6.877367424242426 1.9472064393939363  7.1022727272727275 2.3615056818181825  C 7.32717803030303 2.7758049242424225  7.534327651515152 3.1516335227272734  7.723721590909091 3.4889914772727266  C 7.91311553030303 3.8263494318181825  8.096590909090908 4.142992424242423  8.274147727272728 4.438920454545456  C 8.309659090909092 4.486268939393937  8.413233901515152 4.634232954545456  8.584872159090908 4.8828125  C 8.756510416666668 5.131392045454544  8.88375946969697 5.341500946969696  8.966619318181818 5.513139204545456  C 9.049479166666668 5.68477746212121  9.090909090909092 5.853456439393937  9.090909090909092 6.019176136363635  C 9.090909090909092 6.255918560606058  8.922230113636363 6.551846590909091  8.584872159090908 6.906960227272727  C 8.247514204545455 7.262073863636365  7.880563446969697 7.587594696969696  7.484019886363637 7.883522727272727  C 7.087476325757576 8.179450757575754  6.7205255681818175 8.493134469696969  6.383167613636363 8.824573863636365  C 6.045809659090909 9.156013257575758  5.877130681818182 9.428267045454545  5.877130681818182 9.641335227272727  C 5.877130681818182 9.747869318181818  5.906723484848485 9.881036931818182  5.965909090909091 10.040838068181818  C 6.025094696969697 10.200639204545455  6.075402462121213 10.321969696969695  6.116832386363636 10.404829545454545  C 6.158262310606061 10.487689393939393  6.241122159090909 10.629734848484848  6.3654119318181825 10.830965909090908  C 6.489701704545454 11.032196969696969  6.557765151515152 11.144649621212121  6.5696022727272725 11.168323863636365  C 7.469223484848484 12.790009469696967  8.499053030303031 14.18087121212121  9.659090909090908 15.340909090909092  C 10.819128787878789 16.500946969696965  12.209990530303031 17.530776515151516  13.831676136363635 18.43039772727273  C 13.855350378787879 18.442234848484844  13.967803030303031 18.510298295454547  14.169034090909092 18.634588068181817  C 14.370265151515152 18.75887784090909  14.512310606060607 18.841737689393938  14.595170454545455 18.883167613636363  C 14.678030303030305 18.92459753787879  14.799360795454545 18.9749053030303  14.959161931818182 19.03409090909091  C 15.118963068181818 19.093276515151516  15.252130681818182 19.122869318181817  15.358664772727273 19.122869318181817  C 15.571732954545455 19.122869318181817  15.843986742424242 18.95419034090909  16.175426136363637 18.616832386363637  C 16.50686553030303 18.279474431818183  16.820549242424246 17.912523674242422  17.116477272727273 17.515980113636363  C 17.412405303030305 17.119436553030297  17.737926136363637 16.752485795454547  18.093039772727273 16.41512784090909  C 18.44815340909091 16.077769886363637  18.74408143939394 15.909090909090908  18.980823863636363 15.909090909090908  C 19.146543560606062 15.909090909090908  19.31522253787879 15.950520833333332  19.486860795454543 16.033380681818183  C 19.658499053030305 16.116240530303028  19.868607954545457 16.243489583333332  20.1171875 16.41512784090909  C 20.365767045454543 16.586766098484844  20.513731060606062 16.69034090909091  20.561079545454543 16.72585227272727  C 20.857007575757578 16.90340909090909  21.173650568181817 17.086884469696965  21.511008522727273 17.27627840909091  C 21.848366477272727 17.465672348484844  22.224195075757578 17.672821969696965  22.638494318181817 17.89772727272727  C 23.052793560606062 18.122632575757574  23.372395833333336 18.30018939393939  23.597301136363637 18.43039772727273  C 24.42589962121212 18.844696969696965  24.875710227272727 19.158380681818183  24.946732954545457 19.371448863636363  Z " fill-rule="nonzero" fill="#ffffff" stroke="none" transform="matrix(1 0 0 1 244 301 )" />
  </g>
</svg>