<?xml version="1.0" encoding="utf-8"?>
<svg version="1.1" xmlns:xlink="http://www.w3.org/1999/xlink" width="12px" height="9px" xmlns="http://www.w3.org/2000/svg">
  <g transform="matrix(1 0 0 1 -776 -825 )">
    <path d="M 11.783225806451613 1.2424242424242427  C 11.927741935483873 1.3838383838383836  12.000000000000004 1.5555555555555554  12 1.7575757575757576  C 12.000000000000004 1.9595959595959587  11.927741935483873 2.1313131313131306  11.783225806451613 2.2727272727272725  L 6.178064516129033 7.757575757575757  L 5.1251612903225805 8.787878787878787  C 4.980645161290323 8.929292929292929  4.805161290322582 9  4.598709677419355 9  C 4.392258064516129 9  4.216774193548387 8.929292929292929  4.072258064516129 8.787878787878787  L 3.019354838709677 7.757575757575757  L 0.21677419354838712 5.015151515151516  C 0.07225806451612911 4.873737373737373  0 4.702020202020201  0 4.5  C 0 4.297979797979798  0.07225806451612911 4.126262626262626  0.21677419354838712 3.9848484848484853  L 1.2696774193548386 2.9545454545454546  C 1.4141935483870969 2.8131313131313127  1.589677419354839 2.7424242424242413  1.7961290322580648 2.742424242424242  C 2.0025806451612906 2.7424242424242413  2.1780645161290324 2.8131313131313127  2.32258064516129 2.9545454545454546  L 4.598709677419355 5.1893939393939394  L 9.677419354838708 0.21212121212121215  C 9.82193548387097 0.07070707070707039  9.997419354838712 0  10.203870967741935 0  C 10.410322580645161 0  10.585806451612903 0.07070707070707039  10.730322580645161 0.21212121212121215  L 11.783225806451613 1.2424242424242427  Z " fill-rule="nonzero" fill="#63a103" stroke="none" transform="matrix(1 0 0 1 776 825 )" />
  </g>
</svg>