<?xml version="1.0" encoding="utf-8"?>
<svg version="1.1" xmlns:xlink="http://www.w3.org/1999/xlink" width="25px" height="20px" xmlns="http://www.w3.org/2000/svg">
  <g transform="matrix(1 0 0 1 -244 -484 )">
    <path d="M 23.604910714285715 7.684659090909092  C 24.135044642857146 7.315340909090908  24.600074404761905 6.903409090909092  25 6.448863636363635  L 25 17.727272727272727  C 25 18.352272727272727  24.781436011904763 18.88731060606061  24.344308035714285 19.332386363636363  C 23.907180059523814 19.777462121212118  23.381696428571434 20  22.767857142857142 20  L 2.232142857142857 20  C 1.6183035714285716 20  1.0928199404761907 19.777462121212118  0.6556919642857144 19.332386363636363  C 0.2185639880952382 18.88731060606061  0 18.352272727272727  0 17.727272727272727  L 0 6.448863636363635  C 0.4092261904761906 6.912878787878787  0.8789062500000002 7.324810606060604  1.4090401785714286 7.684659090909092  C 4.775855654761905 10.014204545454547  7.087053571428571 11.647727272727273  8.342633928571429 12.585227272727273  C 8.872767857142858 12.982954545454547  9.302920386904763 13.29308712121212  9.633091517857142 13.515625  C 9.963262648809526 13.738162878787875  10.402715773809526 13.965435606060606  10.951450892857142 14.197443181818183  C 11.500186011904763 14.429450757575758  12.01171875 14.545454545454547  12.486049107142858 14.545454545454547  L 12.5 14.545454545454547  L 12.513950892857142 14.545454545454547  C 12.988281250000004 14.545454545454547  13.499813988095239 14.429450757575758  14.048549107142858 14.197443181818183  C 14.59728422619048 13.965435606060606  15.03673735119048 13.738162878787875  15.366908482142858 13.515625  C 15.697079613095239 13.29308712121212  16.127232142857142 12.982954545454547  16.657366071428573 12.585227272727273  C 18.238467261904763 11.420454545454547  20.554315476190478 9.786931818181818  23.604910714285715 7.684659090909092  Z M 24.337332589285715 0.6676136363636354  C 24.779110863095237 1.1126893939393923  25 1.647727272727273  25 2.272727272727273  C 25 3.0208333333333304  24.772135416666668 3.735795454545454  24.31640625 4.417613636363635  C 23.860677083333336 5.099431818181818  23.293340773809526 5.681818181818182  22.614397321428573 6.164772727272727  C 19.117373511904763 8.636363636363635  16.941034226190478 10.175189393939394  16.085379464285715 10.78125  C 15.992373511904765 10.847537878787879  15.794735863095239 10.991950757575758  15.492466517857142 11.214488636363637  C 15.19019717261905 11.437026515151514  14.93908110119048 11.616950757575758  14.739118303571427 11.754261363636363  C 14.539155505952381 11.891571969696969  14.297340029761907 12.045454545454547  14.013671875 12.215909090909092  C 13.730003720238097 12.386363636363637  13.462611607142858 12.514204545454547  13.211495535714285 12.599431818181817  C 12.960379464285715 12.684659090909092  12.727864583333334 12.727272727272727  12.513950892857142 12.727272727272727  L 12.5 12.727272727272727  L 12.486049107142858 12.727272727272727  C 12.272135416666668 12.727272727272727  12.039620535714286 12.684659090909092  11.788504464285714 12.599431818181817  C 11.537388392857142 12.514204545454547  11.269996279761905 12.386363636363637  10.986328125 12.215909090909092  C 10.702659970238097 12.045454545454547  10.460844494047619 11.891571969696969  10.260881696428571 11.754261363636363  C 10.060918898809526 11.616950757575758  9.809802827380953 11.437026515151514  9.507533482142858 11.214488636363637  C 9.205264136904763 10.991950757575758  9.007626488095239 10.847537878787879  8.914620535714286 10.78125  C 8.068266369047619 10.175189393939394  6.849888392857142 9.311079545454547  5.259486607142857 8.188920454545453  C 3.669084821428571 7.066761363636362  2.7157738095238098 6.3920454545454515  2.3995535714285716 6.164772727272727  C 1.8229166666666667 5.7670454545454515  1.2788318452380956 5.220170454545454  0.7672991071428573 4.524147727272727  C 0.2557663690476191 3.828125  0 3.181818181818181  0 2.585227272727273  C 0 1.8465909090909083  0.19298735119047628 1.2310606060606033  0.5789620535714287 0.7386363636363646  C 0.9649367559523812 0.24621212121211933  1.5159970238095242 0  2.232142857142857 0  L 22.767857142857142 0  C 23.372395833333336 0  23.895554315476193 0.22253787878787623  24.337332589285715 0.6676136363636354  Z " fill-rule="nonzero" fill="#ffffff" stroke="none" transform="matrix(1 0 0 1 244 484 )" />
  </g>
</svg>