<?xml version="1.0" encoding="utf-8"?>
<svg version="1.1" xmlns:xlink="http://www.w3.org/1999/xlink" width="14px" height="11px" xmlns="http://www.w3.org/2000/svg">
  <g transform="matrix(1 0 0 1 -1250 -416 )">
    <path d="M 6.5291479820627805 8.25  L 6.968609865470852 8.25  L 7.878923766816143 7.34375  L 6.68609865470852 6.156249999999999  L 5.775784753363229 7.0625  L 5.775784753363229 7.500000000000001  L 6.5291479820627805 7.500000000000001  L 6.5291479820627805 8.25  Z M 10.413677130044842 2.8828125  C 10.502615844544097 2.794270833333332  10.505231689088191 2.708333333333332  10.42152466367713 2.625  C 10.33781763826607 2.5416666666666656  10.251494768310913 2.544270833333332  10.16255605381166 2.6328125000000004  L 7.415919282511211 5.3671875  C 7.326980568011958 5.455729166666667  7.324364723467863 5.541666666666665  7.408071748878923 5.625  C 7.491778774289986 5.708333333333333  7.578101644245143 5.705729166666665  7.667040358744395 5.617187500000001  L 10.413677130044842 2.8828125  Z M 10.89237668161435 7.0390625  C 10.997010463378178 7.080729166666665  11.04932735426009 7.156250000000001  11.04932735426009 7.265625  L 11.04932735426009 8.75  C 11.04932735426009 9.369791666666666  10.828288490284006 9.899739583333334  10.386210762331839 10.33984375  C 9.944133034379671 10.779947916666666  9.411808669656203 11  8.789237668161435 11  L 2.2600896860986546 11  C 1.6375186846038865 11  1.1051943198804186 10.779947916666666  0.6631165919282511 10.33984375  C 0.2210388639760837 9.899739583333334  0 9.369791666666666  0 8.75  L 0 2.2500000000000004  C 0 1.6302083333333321  0.2210388639760837 1.100260416666666  0.6631165919282511 0.6601562500000004  C 1.1051943198804186 0.22005208333333226  1.6375186846038865 0  2.2600896860986546 0  L 8.789237668161435 0  C 9.11883408071749 0  9.424887892376681 0.06510416666666607  9.707399103139014 0.19531249999999944  C 9.785874439461884 0.2317708333333326  9.832959641255604 0.2916666666666664  9.84865470852018 0.37499999999999967  C 9.864349775784753 0.4635416666666664  9.840807174887892 0.5390624999999994  9.778026905829595 0.6015625  L 9.393497757847534 0.9843749999999999  C 9.320254110612856 1.057291666666666  9.236547085201794 1.078125  9.14237668161435 1.0468750000000004  C 9.02204783258595 1.0156249999999996  8.904334828101645 1.0000000000000004  8.789237668161435 1.0000000000000004  L 2.2600896860986546 1.0000000000000004  C 1.9147982062780269 1.0000000000000004  1.619207772795217 1.1223958333333321  1.3733183856502242 1.3671874999999998  C 1.127428998505232 1.611979166666666  1.0044843049327354 1.9062500000000004  1.0044843049327354 2.2500000000000004  L 1.0044843049327354 8.75  C 1.0044843049327354 9.09375  1.127428998505232 9.388020833333332  1.3733183856502242 9.6328125  C 1.619207772795217 9.877604166666666  1.9147982062780269 10  2.2600896860986546 10  L 8.789237668161435 10  C 9.134529147982063 10  9.430119581464872 9.877604166666666  9.676008968609866 9.6328125  C 9.921898355754859 9.388020833333332  10.044843049327353 9.09375  10.044843049327353 8.75  L 10.044843049327353 7.765625000000001  C 10.044843049327353 7.697916666666666  10.068385650224215 7.640625  10.115470852017937 7.593750000000001  L 10.617713004484305 7.09375  C 10.696188340807174 7.015624999999999  10.787742899850524 6.997395833333333  10.89237668161435 7.0390625  Z M 5.0224215246636765 6.75  L 10.295964125560538 1.5  L 12.556053811659194 3.7500000000000004  L 7.2825112107623315 9  L 5.0224215246636765 9  L 5.0224215246636765 6.75  Z M 14 1.9999999999999996  C 14 2.2083333333333326  13.926756352765322 2.385416666666666  13.780269058295964 2.53125  L 13.058295964125561 3.2499999999999996  L 10.798206278026907 1.0000000000000004  L 11.52017937219731 0.28124999999999944  C 11.666666666666668 0.13541666666666563  11.844544095665173 0.06250000000000056  12.053811659192826 0.06250000000000056  C 12.26307922272048 0.06250000000000056  12.440956651718984 0.13541666666666563  12.58744394618834 0.28124999999999944  L 13.780269058295964 1.4687500000000002  C 13.926756352765322 1.6145833333333317  14 1.7916666666666663  14 1.9999999999999996  Z " fill-rule="nonzero" fill="#000000" stroke="none" transform="matrix(1 0 0 1 1250 416 )" />
  </g>
</svg>