<?xml version="1.0" encoding="utf-8"?>
<svg version="1.1" xmlns:xlink="http://www.w3.org/1999/xlink" width="12px" height="12px" xmlns="http://www.w3.org/2000/svg">
  <g transform="matrix(1 0 0 1 -579 -398 )">
    <path d="M 2.98828125 0.8046874999999996  C 3.9075520833333335 0.26822916666666563  4.911458333333334 0  6 0  C 7.088541666666667 0  8.092447916666668 0.26822916666666563  9.01171875 0.8046874999999996  C 9.930989583333334 1.3411458333333321  10.658854166666668 2.0690104166666665  11.1953125 2.98828125  C 11.731770833333332 3.907552083333332  12 4.911458333333332  12 6  C 12 7.088541666666667  11.731770833333332 8.092447916666664  11.1953125 9.01171875  C 10.658854166666668 9.930989583333334  9.930989583333334 10.658854166666666  9.01171875 11.1953125  C 8.092447916666668 11.731770833333334  7.088541666666667 12  6 12  C 4.911458333333334 12  3.9075520833333335 11.731770833333334  2.98828125 11.1953125  C 2.069010416666667 10.658854166666666  1.3411458333333335 9.930989583333334  0.8046875 9.01171875  C 0.26822916666666663 8.092447916666664  0 7.088541666666667  0 6  C 0 4.911458333333332  0.26822916666666663 3.907552083333332  0.8046875 2.98828125  C 1.3411458333333335 2.0690104166666665  2.069010416666667 1.3411458333333321  2.98828125 0.8046874999999996  Z M 6.9296875 9.92578125  C 6.9765625 9.876302083333334  7 9.815104166666666  7 9.7421875  L 7 8.2578125  C 7 8.184895833333332  6.9765625 8.123697916666666  6.9296875 8.07421875  C 6.8828125 8.024739583333334  6.825520833333334 8  6.7578125 8  L 5.2578125 8  C 5.190104166666667 8  5.130208333333334 8.026041666666668  5.078125 8.078125  C 5.026041666666667 8.130208333333332  5 8.190104166666668  5 8.2578125  L 5 9.7421875  C 5 9.809895833333334  5.026041666666667 9.869791666666666  5.078125 9.921875  C 5.130208333333334 9.973958333333334  5.190104166666667 10  5.2578125 10  L 6.7578125 10  C 6.825520833333334 10  6.8828125 9.975260416666666  6.9296875 9.92578125  Z M 6.90234375 7.191406250000001  C 6.951822916666668 7.152343749999999  6.979166666666666 7.106770833333332  6.984375 7.0546875  L 7.125 2.203125  C 7.125000000000002 2.1406249999999996  7.098958333333334 2.0937499999999996  7.046875 2.0625  C 6.994791666666667 2.020833333333332  6.932291666666666 1.9999999999999996  6.859375 1.9999999999999996  L 5.140625 1.9999999999999996  C 5.067708333333334 1.9999999999999996  5.005208333333334 2.020833333333332  4.953125 2.0625  C 4.901041666666667 2.0937499999999996  4.875 2.1406249999999996  4.875 2.203125  L 5.0078125 7.0546875  C 5.0078125 7.106770833333332  5.033854166666667 7.152343749999999  5.0859375 7.191406250000001  C 5.138020833333334 7.23046875  5.200520833333334 7.250000000000001  5.2734375 7.250000000000001  L 6.71875 7.250000000000001  C 6.791666666666666 7.250000000000001  6.852864583333334 7.23046875  6.90234375 7.191406250000001  Z " fill-rule="nonzero" fill="#aaaaaa" stroke="none" transform="matrix(1 0 0 1 579 398 )" />
  </g>
</svg>