<?xml version="1.0" encoding="utf-8"?>
<svg version="1.1" xmlns:xlink="http://www.w3.org/1999/xlink" width="216px" height="64px" xmlns="http://www.w3.org/2000/svg">
  <g transform="matrix(1 0 0 1 -461 -490 )">
    <path d="M 462 496  A 5 5 0 0 1 467 491 L 671 491  A 5 5 0 0 1 676 496 L 676 548  A 5 5 0 0 1 671 553 L 467 553  A 5 5 0 0 1 462 548 L 462 496  Z " fill-rule="nonzero" fill="#ffffff" stroke="none" />
    <path d="M 461.5 496  A 5.5 5.5 0 0 1 467 490.5 L 671 490.5  A 5.5 5.5 0 0 1 676.5 496 L 676.5 548  A 5.5 5.5 0 0 1 671 553.5 L 467 553.5  A 5.5 5.5 0 0 1 461.5 548 L 461.5 496  Z " stroke-width="1" stroke-dasharray="9,4" stroke="#aaaaaa" fill="none" stroke-dashoffset="0.5" />
  </g>
</svg>