<?xml version="1.0" encoding="utf-8"?>
<svg version="1.1" xmlns:xlink="http://www.w3.org/1999/xlink" width="9px" height="6px" xmlns="http://www.w3.org/2000/svg">
  <g transform="matrix(1 0 0 1 -1103 -523 )">
    <path d="M 8.909819639278558 0.6185567010309276  C 8.969939879759519 0.6872852233676958  9 0.7663230240549821  9 0.8556701030927838  C 9 0.9450171821305835  8.969939879759519 1.0240549828178684  8.909819639278558 1.0927835051546393  L 4.707414829659318 5.896907216494845  C 4.647294589178357 5.9656357388316135  4.578156312625251 6  4.5 6  C 4.42184368737475 6  4.352705410821644 5.9656357388316135  4.292585170340681 5.896907216494845  L 0.09018036072144288 1.0927835051546393  C 0.030060120240481047 1.0240549828178684  0 0.9450171821305835  0 0.8556701030927838  C 0 0.7663230240549821  0.030060120240481047 0.6872852233676958  0.09018036072144288 0.6185567010309276  L 0.5410821643286573 0.10309278350515494  C 0.6012024048096194 0.03436426116838409  0.6703406813627255 0  0.748496993987976 0  C 0.8266533066132267 0  0.8957915831663328 0.03436426116838409  0.9559118236472945 0.10309278350515494  L 4.5 4.154639175257731  L 8.044088176352705 0.10309278350515494  C 8.104208416833668 0.03436426116838409  8.173346693386774 0  8.251503006012024 0  C 8.329659318637276 0  8.398797595190382 0.03436426116838409  8.458917835671343 0.10309278350515494  L 8.909819639278558 0.6185567010309276  Z " fill-rule="nonzero" fill="#7f7f7f" stroke="none" transform="matrix(1 0 0 1 1103 523 )" />
  </g>
</svg>