<?xml version="1.0" encoding="utf-8"?>
<svg version="1.1" xmlns:xlink="http://www.w3.org/1999/xlink" width="29px" height="18px" xmlns="http://www.w3.org/2000/svg">
  <g transform="matrix(1 0 0 1 -211 -1551 )">
    <path d="M 15.739013671875 11.79140625  C 16.121337890625 10.905468749999999  16.3125 9.974999999999998  16.3125 9  C 16.3125 8.024999999999999  16.121337890625 7.09453125  15.739013671875 6.20859375  C 15.356689453125 5.32265625  14.83984375 4.556249999999999  14.1884765625 3.909375  C 13.537109375000002 3.2625  12.765380859375002 2.74921875  11.873291015625 2.369531249999999  C 10.981201171875 1.9898437500000008  10.044270833333334 1.7999999999999996  9.0625 1.7999999999999996  C 8.080729166666668 1.7999999999999996  7.143798828125 1.9898437500000008  6.251708984375 2.369531249999999  C 5.359619140625 2.74921875  4.587890625 3.2625  3.9365234375 3.909375  C 3.28515625 4.556249999999999  2.768310546875 5.32265625  2.385986328125 6.20859375  C 2.003662109375 7.09453125  1.8125 8.024999999999999  1.8125 9  C 1.8125 9.974999999999998  2.003662109375 10.905468749999999  2.385986328125 11.79140625  C 2.768310546875 12.67734375  3.28515625 13.44375  3.9365234375 14.090625000000001  C 4.587890625 14.737499999999999  5.359619140625 15.250781250000001  6.251708984375 15.63046875  C 7.143798828125 16.010156249999998  8.080729166666668 16.2  9.0625 16.2  C 10.044270833333334 16.2  10.981201171875 16.010156249999998  11.873291015625 15.63046875  C 12.765380859375002 15.250781250000001  13.537109375000002 14.737499999999999  14.1884765625 14.090625000000001  C 14.83984375 13.44375  15.356689453125 12.67734375  15.739013671875 11.79140625  Z M 26.614013671875 11.79140625  C 26.996337890625004 10.905468749999999  27.187500000000004 9.974999999999998  27.1875 9  C 27.187500000000004 8.024999999999999  26.996337890625004 7.09453125  26.614013671875 6.20859375  C 26.231689453125004 5.32265625  25.714843750000004 4.556249999999999  25.0634765625 3.909375  C 24.412109375000004 3.2625  23.640380859375004 2.74921875  22.748291015625 2.369531249999999  C 21.856201171875 1.9898437500000008  20.919270833333336 1.7999999999999996  19.9375 1.7999999999999996  L 14.4716796875 1.7999999999999996  C 15.595052083333336 2.64375  16.484781901041668 3.693749999999998  17.140869140625 4.95  C 17.796956380208336 6.206249999999999  18.125 7.556249999999999  18.125 9  C 18.125 10.44375  17.796956380208336 11.793749999999998  17.140869140625 13.049999999999999  C 16.484781901041668 14.306249999999999  15.595052083333336 15.356250000000001  14.4716796875 16.2  L 19.9375 16.2  C 20.919270833333336 16.2  21.856201171875 16.010156249999998  22.748291015625 15.63046875  C 23.640380859375004 15.250781250000001  24.412109375000004 14.737499999999999  25.0634765625 14.090625000000001  C 25.714843750000004 13.44375  26.231689453125004 12.67734375  26.614013671875 11.79140625  Z M 28.27783203125 5.50546875  C 28.75927734375 6.61640625  29 7.781249999999999  29 9  C 29 10.218749999999998  28.75927734375 11.383593750000001  28.27783203125 12.49453125  C 27.79638671875 13.60546875  27.152099609375 14.561718749999999  26.344970703125 15.36328125  C 25.537841796875 16.16484375  24.574951171875 16.8046875  23.456298828125 17.282812500000002  C 22.337646484375 17.7609375  21.164713541666668 18  19.9375 18  L 9.0625 18  C 7.835286458333334 18  6.662353515625001 17.7609375  5.543701171875 17.282812500000002  C 4.425048828125 16.8046875  3.4621582031250004 16.16484375  2.655029296875 15.36328125  C 1.847900390625 14.561718749999999  1.2036132812500002 13.60546875  0.72216796875 12.49453125  C 0.24072265625 11.383593750000001  0 10.218749999999998  0 9  C 0 7.781249999999999  0.24072265625 6.61640625  0.72216796875 5.50546875  C 1.2036132812500002 4.39453125  1.847900390625 3.43828125  2.655029296875 2.63671875  C 3.4621582031250004 1.8351562499999996  4.425048828125 1.1953125  5.543701171875 0.7171874999999992  C 6.662353515625001 0.2390625000000004  7.835286458333334 0  9.0625 0  L 19.9375 0  C 21.164713541666668 0  22.337646484375 0.2390625000000004  23.456298828125 0.7171874999999992  C 24.574951171875 1.1953125  25.537841796875 1.8351562499999996  26.344970703125 2.63671875  C 27.152099609375 3.43828125  27.79638671875 4.39453125  28.27783203125 5.50546875  Z " fill-rule="nonzero" fill="#aaaaaa" stroke="none" transform="matrix(1 0 0 1 211 1551 )" />
  </g>
</svg>