<?xml version="1.0" encoding="utf-8"?>
<svg version="1.1" xmlns:xlink="http://www.w3.org/1999/xlink" width="12px" height="12px" xmlns="http://www.w3.org/2000/svg">
  <g transform="matrix(1 0 0 1 -563 -351 )">
    <path d="M 2.98828125 0.8046874999999996  C 3.9075520833333335 0.26822916666666563  4.911458333333334 0  6 0  C 7.088541666666667 0  8.092447916666668 0.26822916666666563  9.01171875 0.8046874999999996  C 9.930989583333334 1.3411458333333321  10.658854166666668 2.0690104166666665  11.1953125 2.98828125  C 11.731770833333332 3.907552083333332  12 4.911458333333332  12 6  C 12 7.088541666666667  11.731770833333332 8.092447916666664  11.1953125 9.01171875  C 10.658854166666668 9.930989583333334  9.930989583333334 10.658854166666666  9.01171875 11.1953125  C 8.092447916666668 11.731770833333334  7.088541666666667 12  6 12  C 4.911458333333334 12  3.9075520833333335 11.731770833333334  2.98828125 11.1953125  C 2.069010416666667 10.658854166666666  1.3411458333333335 9.930989583333334  0.8046875 9.01171875  C 0.26822916666666663 8.092447916666664  0 7.088541666666667  0 6  C 0 4.911458333333332  0.26822916666666663 3.907552083333332  0.8046875 2.98828125  C 1.3411458333333335 2.0690104166666665  2.069010416666667 1.3411458333333321  2.98828125 0.8046874999999996  Z M 4.75 8.9296875  L 9 6.429687500000001  C 9.166666666666668 6.335937500000001  9.25 6.192708333333332  9.25 6  C 9.25 5.807291666666666  9.166666666666668 5.6640625  9 5.5703125  L 4.75 3.0703125  C 4.588541666666667 2.9713541666666665  4.421875 2.9687500000000004  4.25 3.0625000000000004  C 4.083333333333334 3.1614583333333326  4 3.307291666666666  4 3.4999999999999996  L 4 8.5  C 4 8.692708333333332  4.083333333333334 8.838541666666666  4.25 8.9375  C 4.333333333333334 8.979166666666666  4.416666666666667 9  4.5 9  C 4.588541666666667 9  4.671875 8.9765625  4.75 8.9296875  Z " fill-rule="nonzero" fill="#000000" stroke="none" transform="matrix(1 0 0 1 563 351 )" />
  </g>
</svg>