<?xml version="1.0" encoding="utf-8"?>
<svg version="1.1" xmlns:xlink="http://www.w3.org/1999/xlink" width="103px" height="80px" xmlns="http://www.w3.org/2000/svg">
  <defs>
    <linearGradient gradientUnits="userSpaceOnUse" x1="1171.5" y1="389" x2="1171.5" y2="469" id="LinearGradient156">
      <stop id="Stop157" stop-color="#ffffff" offset="0" />
      <stop id="Stop158" stop-color="#f2f2f2" offset="0" />
      <stop id="Stop159" stop-color="#e4e4e4" offset="1" />
      <stop id="Stop160" stop-color="#ffffff" offset="1" />
    </linearGradient>
  </defs>
  <g transform="matrix(1 0 0 1 -1120 -389 )">
    <path d="M 1222.5 405  C 1222.5 405  1222.5 453  1222.5 453  C 1222.5 461.87300970873787  1199.43875 468.5  1171.5 468.5  C 1143.56125 468.5  1120.5 461.87300970873787  1120.5 453  C 1120.5 453  1120.5 405  1120.5 405  C 1120.5 396.12699029126213  1143.56125 389.5  1171.5 389.5  C 1199.43875 389.5  1222.5 396.12699029126213  1222.5 405  Z " fill-rule="nonzero" fill="url(#LinearGradient156)" stroke="none" />
    <path d="M 1120.5 405.3  C 1120.5 396.452  1142.94 389.5  1171.5 389.5  C 1200.06 389.5  1222.5 396.452  1222.5 405.3  C 1222.5 405.3  1222.5 452.7  1222.5 452.7  C 1222.5 461.548  1200.06 468.5  1171.5 468.5  C 1142.94 468.5  1120.5 461.548  1120.5 452.7  C 1120.5 452.7  1120.5 405.3  1120.5 405.3  Z " stroke-width="1" stroke="#797979" fill="none" />
    <path d="M 1222.5 405  C 1222.5 413.68  1200.06 420.5  1171.5 420.5  C 1142.94 420.5  1120.5 413.68  1120.5 405  " stroke-width="1" stroke="#797979" fill="none" />
  </g>
</svg>