<?xml version="1.0" encoding="utf-8"?>
<svg version="1.1" xmlns:xlink="http://www.w3.org/1999/xlink" width="12px" height="12px" xmlns="http://www.w3.org/2000/svg">
  <g transform="matrix(1 0 0 1 -251 -1137 )">
    <path d="M 5 9.296875  C 5.135416666666667 9.296875  5.252604166666667 9.247395833333334  5.3515625 9.1484375  L 10.1484375 4.3515625  C 10.247395833333334 4.252604166666666  10.296875 4.135416666666666  10.296875 4  C 10.296875 3.8645833333333326  10.247395833333334 3.7473958333333326  10.1484375 3.6484375000000004  L 9.3515625 2.8515625000000004  C 9.252604166666668 2.7526041666666656  9.135416666666668 2.7031249999999996  9 2.7031249999999996  C 8.864583333333334 2.7031249999999996  8.747395833333334 2.7526041666666656  8.6484375 2.8515625000000004  L 5 6.500000000000001  L 3.3515625 4.8515625  C 3.252604166666667 4.752604166666666  3.135416666666667 4.703125  3 4.703125  C 2.8645833333333335 4.703125  2.7473958333333335 4.752604166666666  2.6484375 4.8515625  L 1.8515625 5.6484375  C 1.752604166666667 5.747395833333334  1.703125 5.864583333333334  1.703125 6  C 1.703125 6.135416666666665  1.752604166666667 6.252604166666665  1.8515625 6.3515625  L 4.6484375 9.1484375  C 4.747395833333334 9.247395833333334  4.864583333333334 9.296875  5 9.296875  Z M 11.33984375 0.6601562500000004  C 11.779947916666666 1.1002604166666656  12 1.6302083333333317  12 2.25  L 12 9.75  C 12 10.369791666666666  11.779947916666666 10.899739583333334  11.33984375 11.33984375  C 10.899739583333334 11.779947916666666  10.369791666666668 12  9.75 12  L 2.25 12  C 1.6302083333333335 12  1.1002604166666667 11.779947916666666  0.66015625 11.33984375  C 0.22005208333333331 10.899739583333334  0 10.369791666666666  0 9.75  L 0 2.25  C 0 1.6302083333333317  0.22005208333333331 1.1002604166666656  0.66015625 0.6601562500000004  C 1.1002604166666667 0.2200520833333326  1.6302083333333335 0  2.25 0  L 9.75 0  C 10.369791666666668 0  10.899739583333334 0.2200520833333326  11.33984375 0.6601562500000004  Z " fill-rule="nonzero" fill="#000000" stroke="none" transform="matrix(1 0 0 1 251 1137 )" />
  </g>
</svg>