<?xml version="1.0" encoding="utf-8"?>
<svg version="1.1" xmlns:xlink="http://www.w3.org/1999/xlink" width="12px" height="8px" xmlns="http://www.w3.org/2000/svg">
  <g transform="matrix(1 0 0 1 -270 -1139 )">
    <path d="M 11.77734375 0.2638888888888893  C 11.92578125 0.439814814814814  12 0.6481481481481461  12 0.8888888888888893  C 12 1.1296296296296289  11.92578125 1.337962962962962  11.77734375 1.5138888888888893  L 6.52734375 7.736111111111111  C 6.37890625 7.912037037037038  6.203125 8  6 8  C 5.796875000000001 8  5.621093750000001 7.912037037037038  5.47265625 7.736111111111111  L 0.22265625 1.5138888888888893  C 0.07421875 1.337962962962962  0 1.1296296296296289  0 0.8888888888888893  C 0 0.6481481481481461  0.07421875 0.439814814814814  0.22265625 0.2638888888888893  C 0.37109375 0.08796296296296191  0.546875 0  0.75 0  L 11.25 0  C 11.453125 0  11.62890625 0.08796296296296191  11.77734375 0.2638888888888893  Z " fill-rule="nonzero" fill="#7f7f7f" stroke="none" transform="matrix(1 0 0 1 270 1139 )" />
  </g>
</svg>