<?xml version="1.0" encoding="utf-8"?>
<svg version="1.1" xmlns:xlink="http://www.w3.org/1999/xlink" width="10px" height="10px" xmlns="http://www.w3.org/2000/svg">
  <g transform="matrix(1 0 0 1 -605 -410 )">
    <path d="M 610 410  C 612.8 410  615 412.2  615 415  C 615 417.8  612.8 420  610 420  C 607.2 420  605 417.8  605 415  C 605 412.2  607.2 410  610 410  Z " fill-rule="nonzero" fill="#63a103" stroke="none" />
    <path d="M 610 410.5  C 612.52 410.5  614.5 412.48  614.5 415  C 614.5 417.52  612.52 419.5  610 419.5  C 607.48 419.5  605.5 417.52  605.5 415  C 605.5 412.48  607.48 410.5  610 410.5  Z " stroke-width="1" stroke="#63a103" fill="none" />
  </g>
</svg>