<?xml version="1.0" encoding="utf-8"?>
<svg version="1.1" xmlns:xlink="http://www.w3.org/1999/xlink" width="35px" height="35px" xmlns="http://www.w3.org/2000/svg">
  <g transform="matrix(1 0 0 1 -904 -410 )">
    <path d="M 921.5 410  C 931.3 410  939 417.7  939 427.5  C 939 437.3  931.3 445  921.5 445  C 911.7 445  904 437.3  904 427.5  C 904 417.7  911.7 410  921.5 410  Z " fill-rule="nonzero" fill="#0578f8" stroke="none" />
    <path d="M 921.5 410.5  C 931.02 410.5  938.5 417.98  938.5 427.5  C 938.5 437.02  931.02 444.5  921.5 444.5  C 911.98 444.5  904.5 437.02  904.5 427.5  C 904.5 417.98  911.98 410.5  921.5 410.5  Z " stroke-width="1" stroke="#0578f8" fill="none" />
  </g>
</svg>