<?xml version="1.0" encoding="utf-8"?>
<svg version="1.1" xmlns:xlink="http://www.w3.org/1999/xlink" width="15px" height="15px" xmlns="http://www.w3.org/2000/svg">
  <g transform="matrix(1 0 0 1 -616 -785 )">
    <path d="M 3.7353515625 1.0058593749999996  C 4.884440104166667 0.33528645833333204  6.139322916666667 0  7.5 0  C 8.860677083333334 0  10.115559895833336 0.33528645833333204  11.2646484375 1.0058593749999996  C 12.413736979166666 1.6764322916666652  13.323567708333336 2.586263020833333  13.994140625 3.7353515625  C 14.664713541666664 4.884440104166665  15 6.139322916666664  15 7.5  C 15 8.860677083333334  14.664713541666664 10.115559895833332  13.994140625 11.2646484375  C 13.323567708333336 12.413736979166666  12.413736979166666 13.323567708333334  11.2646484375 13.994140625  C 10.115559895833336 14.664713541666668  8.860677083333334 15  7.5 15  C 6.139322916666667 15  4.884440104166667 14.664713541666668  3.7353515625 13.994140625  C 2.5862630208333335 13.323567708333334  1.676432291666667 12.413736979166666  1.005859375 11.2646484375  C 0.33528645833333326 10.115559895833332  0 8.860677083333334  0 7.5  C 0 6.139322916666664  0.33528645833333326 4.884440104166665  1.005859375 3.7353515625  C 1.676432291666667 2.586263020833333  2.5862630208333335 1.6764322916666652  3.7353515625 1.0058593749999996  Z M 8.662109375 12.4072265625  C 8.720703125 12.345377604166668  8.75 12.268880208333334  8.75 12.177734375  L 8.75 10.322265625000002  C 8.75 10.231119791666664  8.720703125 10.154622395833332  8.662109375 10.0927734375  C 8.603515625 10.030924479166668  8.531901041666666 10.000000000000002  8.447265625 10.000000000000002  L 6.572265625 10.000000000000002  C 6.487630208333334 10.000000000000002  6.412760416666668 10.032552083333334  6.34765625 10.097656249999998  C 6.282552083333334 10.162760416666664  6.25 10.237630208333334  6.25 10.322265625000002  L 6.25 12.177734375  C 6.25 12.262369791666668  6.282552083333334 12.337239583333332  6.34765625 12.40234375  C 6.412760416666668 12.467447916666668  6.487630208333334 12.5  6.572265625 12.5  L 8.447265625 12.5  C 8.531901041666666 12.5  8.603515625 12.469075520833332  8.662109375 12.4072265625  Z M 8.6279296875 8.989257812500002  C 8.689778645833334 8.940429687499998  8.723958333333334 8.883463541666664  8.73046875 8.818359375  L 8.90625 2.75390625  C 8.906250000000002 2.6757812499999996  8.873697916666668 2.6171874999999996  8.80859375 2.578125  C 8.743489583333334 2.526041666666665  8.665364583333334 2.4999999999999996  8.57421875 2.4999999999999996  L 6.42578125 2.4999999999999996  C 6.334635416666668 2.4999999999999996  6.256510416666667 2.526041666666665  6.19140625 2.578125  C 6.126302083333333 2.6171874999999996  6.09375 2.6757812499999996  6.09375 2.75390625  L 6.259765625 8.818359375  C 6.259765625 8.883463541666664  6.292317708333334 8.940429687499998  6.357421875 8.989257812500002  C 6.422526041666668 9.0380859375  6.500651041666668 9.062500000000002  6.591796875 9.062500000000002  L 8.3984375 9.062500000000002  C 8.489583333333334 9.062500000000002  8.566080729166668 9.0380859375  8.6279296875 8.989257812500002  Z " fill-rule="nonzero" fill="#aaaaaa" stroke="none" transform="matrix(1 0 0 1 616 785 )" />
  </g>
</svg>