<?xml version="1.0" encoding="utf-8"?>
<svg version="1.1" xmlns:xlink="http://www.w3.org/1999/xlink" width="10px" height="10px" xmlns="http://www.w3.org/2000/svg">
  <g transform="matrix(1 0 0 1 -606 -562 )">
    <path d="M 611 562  C 613.8 562  616 564.2  616 567  C 616 569.8  613.8 572  611 572  C 608.2 572  606 569.8  606 567  C 606 564.2  608.2 562  611 562  Z " fill-rule="nonzero" fill="#d7d7d7" stroke="none" />
    <path d="M 611 562.5  C 613.52 562.5  615.5 564.48  615.5 567  C 615.5 569.52  613.52 571.5  611 571.5  C 608.48 571.5  606.5 569.52  606.5 567  C 606.5 564.48  608.48 562.5  611 562.5  Z " stroke-width="1" stroke="#d7d7d7" fill="none" />
  </g>
</svg>