<?xml version="1.0" encoding="utf-8"?>
<svg version="1.1" xmlns:xlink="http://www.w3.org/1999/xlink" width="561px" height="201px" xmlns="http://www.w3.org/2000/svg">
  <defs>
    <filter x="476px" y="749px" width="561px" height="201px" filterUnits="userSpaceOnUse" id="filter125">
      <feOffset dx="0" dy="-1" in="SourceAlpha" result="shadowOffsetInner" />
      <feGaussianBlur stdDeviation="33" in="shadowOffsetInner" result="shadowGaussian" />
      <feComposite in2="shadowGaussian" operator="atop" in="SourceAlpha" result="shadowComposite" />
      <feColorMatrix type="matrix" values="0 0 0 0 0  0 0 0 0 0  0 0 0 0 0  0 0 0 0.34901960784313724 0  " in="shadowComposite" />
    </filter>
    <g id="widget126">
      <path d="M 1.5 0  L 1.5 58  C 0.5011709601873536 63.32  4.69096018735363 67.5  10.023419203747073 67.5  L 417.9765807962529 67.5  C 423.30903981264635 67.5  427.4988290398126 63.32  427.5 58  L 427.5 0  L 1.5 0  Z " fill-rule="nonzero" fill="#ffffff" stroke="none" transform="matrix(1 0 0 1 542 816 )" />
      <path d="M 1.5 0  L 1.5 58  C 0.5011709601873536 63.32  4.69096018735363 67.5  10.023419203747073 67.5  L 417.9765807962529 67.5  C 423.30903981264635 67.5  427.4988290398126 63.32  427.5 58  L 427.5 0  " stroke-width="1" stroke="#797979" fill="none" transform="matrix(1 0 0 1 542 816 )" />
    </g>
  </defs>
  <g transform="matrix(1 0 0 1 -476 -749 )">
    <use xlink:href="#widget126" filter="url(#filter125)" />
    <use xlink:href="#widget126" />
  </g>
</svg>