<?xml version="1.0" encoding="utf-8"?>
<svg version="1.1" xmlns:xlink="http://www.w3.org/1999/xlink" width="15px" height="12px" xmlns="http://www.w3.org/2000/svg">
  <g transform="matrix(1 0 0 1 -1015 -1456 )">
    <path d="M 6.995515695067265 9  L 7.466367713004484 9  L 8.441704035874439 8.011363636363637  L 7.163677130044843 6.71590909090909  L 6.188340807174888 7.704545454545455  L 6.188340807174888 8.181818181818183  L 6.995515695067265 8.181818181818183  L 6.995515695067265 9  Z M 11.157511210762332 3.1448863636363638  C 11.25280269058296 3.0482954545454533  11.25560538116592 2.9545454545454533  11.165919282511211 2.8636363636363638  C 11.076233183856504 2.7727272727272716  10.983744394618835 2.7755681818181808  10.888452914798206 2.8721590909090913  L 7.945627802690583 5.855113636363637  C 7.850336322869955 5.951704545454545  7.8475336322869955 6.045454545454544  7.937219730941703 6.136363636363637  C 8.026905829596414 6.227272727272727  8.119394618834082 6.224431818181817  8.21468609865471 6.12784090909091  L 11.157511210762332 3.1448863636363638  Z M 11.670403587443946 7.6789772727272725  C 11.782511210762333 7.724431818181817  11.838565022421523 7.8068181818181825  11.838565022421523 7.926136363636363  L 11.838565022421523 9.545454545454545  C 11.838565022421523 10.22159090909091  11.601737668161435 10.79971590909091  11.128082959641254 11.279829545454545  C 10.654428251121077 11.759943181818182  10.08408071748879 12  9.417040358744394 12  L 2.42152466367713 12  C 1.7544843049327357 12  1.1841367713004485 11.759943181818182  0.710482062780269 11.279829545454545  C 0.23682735426008966 10.79971590909091  0 10.22159090909091  0 9.545454545454545  L 0 2.454545454545455  C 0 1.7784090909090895  0.23682735426008966 1.2002840909090904  0.710482062780269 0.720170454545455  C 1.1841367713004485 0.240056818181817  1.7544843049327357 0  2.42152466367713 0  L 9.417040358744394 0  C 9.77017937219731 0  10.098094170403588 0.07102272727272663  10.40078475336323 0.2130681818181812  C 10.484865470852018 0.2528409090909083  10.53531390134529 0.3181818181818179  10.55213004484305 0.4090909090909087  C 10.568946188340806 0.5056818181818179  10.54372197309417 0.5880681818181812  10.476457399103138 0.65625  L 10.064461883408072 1.0738636363636362  C 9.985986547085203 1.1534090909090904  9.896300448430495 1.1761363636363638  9.795403587443946 1.142045454545455  C 9.666479820627803 1.107954545454545  9.54035874439462 1.0909090909090913  9.417040358744394 1.0909090909090913  L 2.42152466367713 1.0909090909090913  C 2.0515695067264574 1.0909090909090913  1.7348654708520184 1.224431818181817  1.4714125560538118 1.4914772727272725  C 1.2079596412556055 1.7585227272727266  1.0762331838565022 2.079545454545455  1.0762331838565022 2.454545454545455  L 1.0762331838565022 9.545454545454545  C 1.0762331838565022 9.920454545454545  1.2079596412556055 10.24147727272727  1.4714125560538118 10.508522727272727  C 1.7348654708520184 10.775568181818182  2.0515695067264574 10.909090909090908  2.42152466367713 10.909090909090908  L 9.417040358744394 10.909090909090908  C 9.786995515695068 10.909090909090908  10.103699551569507 10.775568181818182  10.367152466367713 10.508522727272727  C 10.63060538116592 10.24147727272727  10.762331838565022 9.920454545454545  10.762331838565022 9.545454545454545  L 10.762331838565022 8.47159090909091  C 10.762331838565022 8.397727272727272  10.78755605381166 8.335227272727273  10.838004484304932 8.28409090909091  L 11.376121076233185 7.738636363636363  C 11.460201793721973 7.65340909090909  11.558295964125561 7.633522727272727  11.670403587443946 7.6789772727272725  Z M 5.381165919282511 7.363636363636363  L 11.031390134529149 1.6363636363636362  L 13.452914798206278 4.090909090909092  L 7.802690582959641 9.818181818181817  L 5.381165919282511 9.818181818181817  L 5.381165919282511 7.363636363636363  Z M 15 2.181818181818181  C 15 2.4090909090909083  14.92152466367713 2.6022727272727266  14.764573991031389 2.7613636363636362  L 13.99103139013453 3.545454545454545  L 11.5695067264574 1.0909090909090913  L 12.343049327354262 0.3068181818181812  C 12.5 0.1477272727272716  12.690582959641256 0.06818181818181879  12.914798206278027 0.06818181818181879  C 13.1390134529148 0.06818181818181879  13.329596412556054 0.1477272727272716  13.486547085201794 0.3068181818181812  L 14.764573991031389 1.6022727272727275  C 14.92152466367713 1.7613636363636345  15 1.9545454545454541  15 2.181818181818181  Z " fill-rule="nonzero" fill="#aaaaaa" stroke="none" transform="matrix(1 0 0 1 1015 1456 )" />
  </g>
</svg>