<?xml version="1.0" encoding="utf-8"?>
<svg version="1.1" xmlns:xlink="http://www.w3.org/1999/xlink" width="30px" height="18px" xmlns="http://www.w3.org/2000/svg">
  <g transform="matrix(1 0 0 1 -288 -413 )">
    <path d="M 0.7470703125 12.49453125  C 0.2490234375 11.383593750000001  0 10.218749999999998  0 9  C 0 7.781249999999999  0.2490234375 6.61640625  0.7470703125 5.50546875  C 1.2451171875000002 4.39453125  1.91162109375 3.43828125  2.74658203125 2.63671875  C 3.5815429687500004 1.8351562499999996  4.57763671875 1.1953125  5.73486328125 0.7171874999999992  C 6.892089843750001 0.2390625000000004  8.10546875 0  9.375 0  L 20.625 0  C 21.89453125 0  23.10791015625 0.2390625000000004  24.26513671875 0.7171874999999992  C 25.42236328125 1.1953125  26.41845703125 1.8351562499999996  27.25341796875 2.63671875  C 28.08837890625 3.43828125  28.7548828125 4.39453125  29.2529296875 5.50546875  C 29.7509765625 6.61640625  30 7.781249999999999  30 9  C 30 10.218749999999998  29.7509765625 11.383593750000001  29.2529296875 12.49453125  C 28.7548828125 13.60546875  28.08837890625 14.561718749999999  27.25341796875 15.36328125  C 26.41845703125 16.16484375  25.42236328125 16.8046875  24.26513671875 17.282812500000002  C 23.10791015625 17.7609375  21.89453125 18  20.625 18  L 9.375 18  C 8.10546875 18  6.892089843750001 17.7609375  5.73486328125 17.282812500000002  C 4.57763671875 16.8046875  3.5815429687500004 16.16484375  2.74658203125 15.36328125  C 1.91162109375 14.561718749999999  1.2451171875000002 13.60546875  0.7470703125 12.49453125  Z M 17.71728515625 15.63046875  C 18.64013671875 16.010156249999998  19.609375 16.2  20.625 16.2  C 21.640625000000004 16.2  22.60986328125 16.010156249999998  23.53271484375 15.63046875  C 24.455566406250004 15.250781250000001  25.253906250000004 14.737499999999999  25.927734375 14.090625000000001  C 26.601562500000004 13.44375  27.136230468750004 12.67734375  27.53173828125 11.79140625  C 27.927246093750004 10.905468749999999  28.125000000000004 9.974999999999998  28.125 9  C 28.125000000000004 8.024999999999999  27.927246093750004 7.09453125  27.53173828125 6.20859375  C 27.136230468750004 5.32265625  26.601562500000004 4.556249999999999  25.927734375 3.909375  C 25.253906250000004 3.2625  24.455566406250004 2.74921875  23.53271484375 2.369531249999999  C 22.60986328125 1.9898437500000008  21.640625000000004 1.7999999999999996  20.625 1.7999999999999996  C 19.609375 1.7999999999999996  18.64013671875 1.9898437500000008  17.71728515625 2.369531249999999  C 16.79443359375 2.74921875  15.99609375 3.2625  15.322265625 3.909375  C 14.6484375 4.556249999999999  14.11376953125 5.32265625  13.71826171875 6.20859375  C 13.32275390625 7.09453125  13.125 8.024999999999999  13.125 9  C 13.125 9.974999999999998  13.32275390625 10.905468749999999  13.71826171875 11.79140625  C 14.11376953125 12.67734375  14.6484375 13.44375  15.322265625 14.090625000000001  C 15.99609375 14.737499999999999  16.79443359375 15.250781250000001  17.71728515625 15.63046875  Z " fill-rule="nonzero" fill="#0578f8" stroke="none" transform="matrix(1 0 0 1 288 413 )" />
  </g>
</svg>