<?xml version="1.0" encoding="utf-8"?>
<svg version="1.1" xmlns:xlink="http://www.w3.org/1999/xlink" width="25px" height="25px" xmlns="http://www.w3.org/2000/svg">
  <g transform="matrix(1 0 0 1 -212 -562 )">
    <path d="M 224.5 562  C 231.5 562  237 567.5  237 574.5  C 237 581.5  231.5 587  224.5 587  C 217.5 587  212 581.5  212 574.5  C 212 567.5  217.5 562  224.5 562  Z " fill-rule="nonzero" fill="#0578f8" stroke="none" />
    <path d="M 224.5 562.5  C 231.22 562.5  236.5 567.78  236.5 574.5  C 236.5 581.22  231.22 586.5  224.5 586.5  C 217.78 586.5  212.5 581.22  212.5 574.5  C 212.5 567.78  217.78 562.5  224.5 562.5  Z " stroke-width="1" stroke="#0578f8" fill="none" />
  </g>
</svg>