<?xml version="1.0" encoding="utf-8"?>
<svg version="1.1" xmlns:xlink="http://www.w3.org/1999/xlink" width="40px" height="40px" xmlns="http://www.w3.org/2000/svg">
  <g transform="matrix(1 0 0 1 -552 -302 )">
    <path d="M 572 302  C 583.2 302  592 310.8  592 322  C 592 333.2  583.2 342  572 342  C 560.8 342  552 333.2  552 322  C 552 310.8  560.8 302  572 302  Z " fill-rule="nonzero" fill="#ffffff" stroke="none" />
    <path d="M 572 302.5  C 582.92 302.5  591.5 311.08  591.5 322  C 591.5 332.92  582.92 341.5  572 341.5  C 561.08 341.5  552.5 332.92  552.5 322  C 552.5 311.08  561.08 302.5  572 302.5  Z " stroke-width="1" stroke="#d7d7d7" fill="none" />
  </g>
</svg>