<?xml version="1.0" encoding="utf-8"?>
<svg version="1.1" xmlns:xlink="http://www.w3.org/1999/xlink" width="8px" height="8px" xmlns="http://www.w3.org/2000/svg">
  <g transform="matrix(1 0 0 1 -642 -432 )">
    <path d="M 646 432  C 648.24 432  650 433.76  650 436  C 650 438.24  648.24 440  646 440  C 643.76 440  642 438.24  642 436  C 642 433.76  643.76 432  646 432  Z " fill-rule="nonzero" fill="#d7d7d7" stroke="none" />
    <path d="M 646 432.5  C 647.96 432.5  649.5 434.04  649.5 436  C 649.5 437.96  647.96 439.5  646 439.5  C 644.04 439.5  642.5 437.96  642.5 436  C 642.5 434.04  644.04 432.5  646 432.5  Z " stroke-width="1" stroke="#d7d7d7" fill="none" />
  </g>
</svg>