<?xml version="1.0" encoding="utf-8"?>
<svg version="1.1" xmlns:xlink="http://www.w3.org/1999/xlink" width="748px" height="52px" xmlns="http://www.w3.org/2000/svg">
  <g transform="matrix(1 0 0 1 -579 -474 )">
    <path d="M 1.5 0  L 1.5 42.355932203389834  C 0.4727848101265823 46.95457627118644  4.42526582278481 50.567796610169495  9.455696202531646 50.5  L 737.5443037974684 50.5  C 742.5747341772152 50.567796610169495  746.5272151898735 46.95457627118644  746.5 42.355932203389834  L 746.5 0  L 1.5 0  Z " fill-rule="nonzero" fill="#f2f2f2" stroke="none" transform="matrix(1 0 0 1 579 474 )" />
    <path d="M 1.5 0  L 1.5 42.355932203389834  C 0.4727848101265823 46.95457627118644  4.42526582278481 50.567796610169495  9.455696202531646 50.5  L 737.5443037974684 50.5  C 742.5747341772152 50.567796610169495  746.5272151898735 46.95457627118644  746.5 42.355932203389834  L 746.5 0  " stroke-width="1" stroke="#d7d7d7" fill="none" transform="matrix(1 0 0 1 579 474 )" />
  </g>
</svg>