<?xml version="1.0" encoding="utf-8"?>
<svg version="1.1" xmlns:xlink="http://www.w3.org/1999/xlink" width="19px" height="15px" xmlns="http://www.w3.org/2000/svg">
  <g transform="matrix(1 0 0 1 -639 -284 )">
    <path d="M 8.860986547085203 11.25  L 9.457399103139013 11.25  L 10.692825112107622 10.014204545454545  L 9.073991031390134 8.394886363636363  L 7.838565022421525 9.630681818181818  L 7.838565022421525 10.227272727272728  L 8.860986547085203 10.227272727272728  L 8.860986547085203 11.25  Z M 14.132847533632287 3.9311079545454546  C 14.253550074738417 3.8103693181818166  14.257100149476832 3.6931818181818166  14.143497757847534 3.5795454545454546  C 14.029895366218238 3.4659090909090895  13.912742899850524 3.4694602272727257  13.792040358744394 3.590198863636364  L 10.064461883408072 7.318892045454545  C 9.943759342301943 7.439630681818182  9.940209267563528 7.55681818181818  10.053811659192824 7.670454545454545  C 10.167414050822124 7.784090909090909  10.284566517189837 7.780539772727271  10.405269058295966 7.659801136363638  L 14.132847533632287 3.9311079545454546  Z M 14.782511210762332 9.59872159090909  C 14.924514200298955 9.65553977272727  14.995515695067263 9.758522727272728  14.995515695067263 9.907670454545455  L 14.995515695067263 11.931818181818182  C 14.995515695067263 12.776988636363637  14.695534379671152 13.499644886363637  14.095571748878923 14.099786931818182  C 13.495609118086698 14.699928977272727  12.773168908819134 15  11.928251121076233 15  L 3.0672645739910314 15  C 2.222346786248132 15  1.499906576980568 14.699928977272727  0.8999439461883407 14.099786931818182  C 0.29998131539611356 13.499644886363637  0 12.776988636363637  0 11.931818181818182  L 0 3.068181818181819  C 0 2.223011363636362  0.29998131539611356 1.5003551136363629  0.8999439461883407 0.9002130681818188  C 1.499906576980568 0.30007102272727126  2.222346786248132 0  3.0672645739910314 0  L 11.928251121076233 0  C 12.375560538116593 0  12.79091928251121 0.08877840909090828  13.17432735426009 0.2663352272727265  C 13.280829596412556 0.31605113636363535  13.344730941704034 0.3977272727272724  13.366031390134529 0.5113636363636359  C 13.387331838565022 0.6321022727272724  13.355381165919281 0.7350852272727265  13.270179372197308 0.8203125  L 12.748318385650224 1.3423295454545454  C 12.64891629297459 1.4417613636363629  12.535313901345292 1.4701704545454546  12.407511210762332 1.4275568181818188  C 12.244207772795217 1.3849431818181812  12.084454409566519 1.3636363636363642  11.928251121076233 1.3636363636363642  L 3.0672645739910314 1.3636363636363642  C 2.5986547085201797 1.3636363636363642  2.197496263079223 1.5305397727272712  1.8637892376681615 1.8643465909090906  C 1.5300822122571005 2.1981534090909083  1.3632286995515694 2.599431818181819  1.3632286995515694 3.068181818181819  L 1.3632286995515694 11.931818181818182  C 1.3632286995515694 12.400568181818182  1.5300822122571005 12.801846590909088  1.8637892376681615 13.13565340909091  C 2.197496263079223 13.469460227272727  2.5986547085201797 13.636363636363637  3.0672645739910314 13.636363636363637  L 11.928251121076233 13.636363636363637  C 12.396860986547086 13.636363636363637  12.798019431988042 13.469460227272727  13.131726457399104 13.13565340909091  C 13.465433482810166 12.801846590909088  13.632286995515694 12.400568181818182  13.632286995515694 11.931818181818182  L 13.632286995515694 10.589488636363637  C 13.632286995515694 10.49715909090909  13.664237668161435 10.41903409090909  13.728139013452914 10.355113636363637  L 14.409753363228699 9.673295454545455  C 14.516255605381165 9.566761363636363  14.640508221225712 9.541903409090908  14.782511210762332 9.59872159090909  Z M 6.816143497757847 9.204545454545455  L 13.973094170403588 2.0454545454545454  L 17.04035874439462 5.113636363636364  L 9.883408071748878 12.272727272727272  L 6.816143497757847 12.272727272727272  L 6.816143497757847 9.204545454545455  Z M 19 2.7272727272727266  C 19 3.0113636363636354  18.900597907324364 3.2528409090909083  18.701793721973093 3.4517045454545454  L 17.721973094170405 4.431818181818182  L 14.654708520179373 1.3636363636363642  L 15.634529147982065 0.3835227272727265  C 15.833333333333334 0.1846590909090895  16.074738415545593 0.08522727272727348  16.358744394618835 0.08522727272727348  C 16.642750373692078 0.08522727272727348  16.884155455904335 0.1846590909090895  17.082959641255606 0.3835227272727265  L 18.701793721973093 2.002840909090909  C 18.900597907324364 2.201704545454543  19 2.4431818181818175  19 2.7272727272727266  Z " fill-rule="nonzero" fill="#555555" stroke="none" transform="matrix(1 0 0 1 639 284 )" />
  </g>
</svg>