<?xml version="1.0" encoding="utf-8"?>
<svg version="1.1" xmlns:xlink="http://www.w3.org/1999/xlink" width="2px" height="12px" xmlns="http://www.w3.org/2000/svg">
  <g transform="matrix(1 0 0 1 -1279 -563 )">
    <path d="M 1.8541666666666667 8.96590909090909  C 1.9513888888888886 9.124999999999998  2 9.318181818181818  2 9.545454545454545  L 2 11.181818181818183  C 2 11.40909090909091  1.9513888888888886 11.602272727272727  1.8541666666666667 11.761363636363637  C 1.7569444444444446 11.920454545454547  1.638888888888889 12  1.5 12  L 0.5 12  C 0.36111111111111116 12  0.24305555555555558 11.920454545454547  0.14583333333333334 11.761363636363637  C 0.048611111111111105 11.602272727272727  0 11.40909090909091  0 11.181818181818183  L 0 9.545454545454545  C 0 9.318181818181818  0.048611111111111105 9.124999999999998  0.14583333333333334 8.96590909090909  C 0.24305555555555558 8.806818181818183  0.36111111111111116 8.727272727272727  0.5 8.727272727272727  L 1.5 8.727272727272727  C 1.638888888888889 8.727272727272727  1.7569444444444446 8.806818181818183  1.8541666666666667 8.96590909090909  Z M 1.8541666666666667 4.6022727272727275  C 1.9513888888888886 4.761363636363635  2 4.954545454545454  2 5.181818181818182  L 2 6.8181818181818175  C 2 7.045454545454546  1.9513888888888886 7.238636363636363  1.8541666666666667 7.3977272727272725  C 1.7569444444444446 7.556818181818181  1.638888888888889 7.636363636363637  1.5 7.636363636363637  L 0.5 7.636363636363637  C 0.36111111111111116 7.636363636363637  0.24305555555555558 7.556818181818181  0.14583333333333334 7.3977272727272725  C 0.048611111111111105 7.238636363636363  0 7.045454545454546  0 6.8181818181818175  L 0 5.181818181818182  C 0 4.954545454545454  0.048611111111111105 4.761363636363635  0.14583333333333334 4.6022727272727275  C 0.24305555555555558 4.443181818181818  0.36111111111111116 4.363636363636363  0.5 4.363636363636363  L 1.5 4.363636363636363  C 1.638888888888889 4.363636363636363  1.7569444444444446 4.443181818181818  1.8541666666666667 4.6022727272727275  Z M 1.8541666666666667 0.23863636363636376  C 1.9513888888888886 0.39772727272727204  2 0.5909090909090904  2 0.8181818181818188  L 2 2.454545454545455  C 2 2.6818181818181808  1.9513888888888886 2.874999999999999  1.8541666666666667 3.0340909090909087  C 1.7569444444444446 3.193181818181817  1.638888888888889 3.2727272727272725  1.5 3.2727272727272725  L 0.5 3.2727272727272725  C 0.36111111111111116 3.2727272727272725  0.24305555555555558 3.193181818181817  0.14583333333333334 3.0340909090909087  C 0.048611111111111105 2.874999999999999  0 2.6818181818181808  0 2.454545454545455  L 0 0.8181818181818188  C 0 0.5909090909090904  0.048611111111111105 0.39772727272727204  0.14583333333333334 0.23863636363636376  C 0.24305555555555558 0.07954545454545414  0.36111111111111116 0  0.5 0  L 1.5 0  C 1.638888888888889 0  1.7569444444444446 0.07954545454545414  1.8541666666666667 0.23863636363636376  Z " fill-rule="nonzero" fill="#555555" stroke="none" transform="matrix(1 0 0 1 1279 563 )" />
  </g>
</svg>