<?xml version="1.0" encoding="utf-8"?>
<svg version="1.1" xmlns:xlink="http://www.w3.org/1999/xlink" width="562px" height="138px" xmlns="http://www.w3.org/2000/svg">
  <defs>
    <filter x="476px" y="601px" width="562px" height="138px" filterUnits="userSpaceOnUse" id="filter130">
      <feOffset dx="0" dy="-5" in="SourceAlpha" result="shadowOffsetInner" />
      <feGaussianBlur stdDeviation="20.5" in="shadowOffsetInner" result="shadowGaussian" />
      <feComposite in2="shadowGaussian" operator="atop" in="SourceAlpha" result="shadowComposite" />
      <feColorMatrix type="matrix" values="0 0 0 0 0.6666666666666666  0 0 0 0 0.6666666666666666  0 0 0 0 0.6666666666666666  0 0 0 0.34901960784313724 0  " in="shadowComposite" />
    </filter>
    <g id="widget131">
      <path d="M 1.5 0  L 1.5 49.85981308411215  C 0.5608899297423887 52.59439252336449  5.249929742388758 54.74299065420561  11.217798594847777 54.5  L 467.7822014051522 54.5  C 473.75007025761124 54.74299065420561  478.4391100702576 52.59439252336449  478.5 49.85981308411215  L 478.5 0  L 1.5 0  Z " fill-rule="nonzero" fill="#ffffff" stroke="none" transform="matrix(1 0 0 1 517 647 )" />
      <path d="M 1.5 0  L 1.5 49.85981308411215  C 0.5608899297423887 52.59439252336449  5.249929742388758 54.74299065420561  11.217798594847777 54.5  L 467.7822014051522 54.5  C 473.75007025761124 54.74299065420561  478.4391100702576 52.59439252336449  478.5 49.85981308411215  L 478.5 0  " stroke-width="1" stroke="#797979" fill="none" transform="matrix(1 0 0 1 517 647 )" />
    </g>
  </defs>
  <g transform="matrix(1 0 0 1 -476 -601 )">
    <use xlink:href="#widget131" filter="url(#filter130)" />
    <use xlink:href="#widget131" />
  </g>
</svg>