<?xml version="1.0" encoding="utf-8"?>
<svg version="1.1" xmlns:xlink="http://www.w3.org/1999/xlink" width="15px" height="15px" xmlns="http://www.w3.org/2000/svg">
  <g transform="matrix(1 0 0 1 -612 -416 )">
    <path d="M 4.587053571428572 0.5943080357142855  C 5.513392857142858 0.1981026785714285  6.484375 0  7.5 0  C 8.515625 0  9.486607142857144 0.1981026785714285  10.412946428571429 0.5943080357142855  C 11.339285714285715 0.9905133928571425  12.137276785714285 1.5234375  12.806919642857144 2.1930803571428563  C 13.476562500000002 2.8627232142857144  14.00948660714286 3.6607142857142843  14.405691964285715 4.587053571428571  C 14.801897321428573 5.513392857142856  15 6.484374999999999  15 7.5  C 15 8.510044642857142  14.803292410714285 9.478236607142858  14.409877232142856 10.404575892857142  C 14.016462053571429 11.33091517857143  13.484933035714285 12.12890625  12.815290178571429 12.798549107142858  C 12.145647321428571 13.468191964285715  11.347656250000002 14.002511160714285  10.421316964285715 14.401506696428571  C 9.494977678571429 14.800502232142858  8.521205357142856 15  7.5 15  C 6.478794642857142 15  5.505022321428572 14.801897321428571  4.578683035714286 14.405691964285715  C 3.65234375 14.009486607142858  2.8557477678571432 13.475167410714285  2.188895089285714 12.802734375  C 1.5220424107142856 12.130301339285714  0.9905133928571429 11.332310267857142  0.5943080357142857 10.408761160714285  C 0.19810267857142855 9.485212053571427  0 8.515624999999998  0 7.5  C 0 6.484374999999999  0.19810267857142855 5.513392857142856  0.5943080357142857 4.587053571428571  C 0.9905133928571429 3.6607142857142843  1.5234375 2.8627232142857144  2.193080357142857 2.1930803571428563  C 2.862723214285714 1.5234375  3.660714285714286 0.9905133928571425  4.587053571428572 0.5943080357142855  Z M 10.119977678571429 8.571428571428571  C 11.459263392857144 8.571428571428571  12.313058035714285 9.483816964285715  12.681361607142856 11.30859375  C 13.512834821428573 10.164620535714286  13.928571428571429 8.895089285714285  13.928571428571429 7.5  C 13.928571428571429 6.629464285714286  13.758370535714286 5.79799107142857  13.41796875 5.005580357142857  C 13.077566964285715 4.213169642857142  12.619977678571432 3.5295758928571415  12.045200892857144 2.9547991071428563  C 11.47042410714286 2.3800223214285716  10.786830357142858 1.922433035714285  9.994419642857144 1.58203125  C 9.202008928571429 1.2416294642857135  8.370535714285715 1.071428571428571  7.5 1.071428571428571  C 6.629464285714286 1.071428571428571  5.797991071428572 1.2416294642857135  5.005580357142858 1.58203125  C 4.213169642857143 1.922433035714285  3.5295758928571432 2.3800223214285716  2.954799107142857 2.9547991071428563  C 2.380022321428572 3.5295758928571415  1.9224330357142858 4.213169642857142  1.58203125 5.005580357142857  C 1.2416294642857144 5.79799107142857  1.0714285714285714 6.629464285714286  1.0714285714285714 7.5  C 1.0714285714285714 8.895089285714285  1.4871651785714286 10.164620535714286  2.318638392857143 11.30859375  C 2.686941964285714 9.483816964285715  3.540736607142857 8.571428571428571  4.880022321428572 8.571428571428571  C 5.611049107142858 9.285714285714286  6.484375 9.642857142857142  7.5 9.642857142857142  C 8.515625 9.642857142857142  9.388950892857142 9.285714285714286  10.119977678571429 8.571428571428571  Z M 9.772600446428571 8.165457589285715  C 10.400390625 7.537667410714286  10.714285714285715 6.780133928571429  10.714285714285715 5.892857142857143  C 10.714285714285715 5.005580357142857  10.400390625 4.248046875  9.772600446428571 3.620256696428571  C 9.144810267857144 2.9924665178571437  8.387276785714285 2.678571428571429  7.5 2.678571428571429  C 6.612723214285714 2.678571428571429  5.855189732142858 2.9924665178571437  5.227399553571428 3.620256696428571  C 4.599609375 4.248046875  4.285714285714286 5.005580357142857  4.285714285714286 5.892857142857143  C 4.285714285714286 6.780133928571429  4.599609375 7.537667410714286  5.227399553571428 8.165457589285715  C 5.855189732142858 8.793247767857142  6.612723214285714 9.107142857142858  7.5 9.107142857142858  C 8.387276785714285 9.107142857142858  9.144810267857144 8.793247767857142  9.772600446428571 8.165457589285715  Z " fill-rule="nonzero" fill="#000000" stroke="none" transform="matrix(1 0 0 1 612 416 )" />
  </g>
</svg>