<?xml version="1.0" encoding="utf-8"?>
<svg version="1.1" xmlns:xlink="http://www.w3.org/1999/xlink" width="491px" height="90px" xmlns="http://www.w3.org/2000/svg">
  <g transform="matrix(1 0 0 1 -400 -753 )">
    <path d="M 1.5 0  L 1.5 83  C 0.5212765957446809 86.08  3.044255319148936 88.5  6.25531914893617 88.5  L 483.74468085106383 88.5  C 486.95574468085107 88.5  489.4787234042553 86.08  489.5 83  L 489.5 0  L 1.5 0  Z " fill-rule="nonzero" fill="#f2f2f2" stroke="none" transform="matrix(1 0 0 1 400 753 )" />
    <path d="M 1.5 0  L 1.5 83  C 0.5212765957446809 86.08  3.044255319148936 88.5  6.25531914893617 88.5  L 483.74468085106383 88.5  C 486.95574468085107 88.5  489.4787234042553 86.08  489.5 83  L 489.5 0  " stroke-width="1" stroke="#aaaaaa" fill="none" transform="matrix(1 0 0 1 400 753 )" />
  </g>
</svg>