<?xml version="1.0" encoding="utf-8"?>
<svg version="1.1" xmlns:xlink="http://www.w3.org/1999/xlink" width="658px" height="149px" xmlns="http://www.w3.org/2000/svg">
  <g transform="matrix(1 0 0 1 -412 -3460 )">
    <path d="M 413 3466  A 5 5 0 0 1 418 3461 L 1064 3461  A 5 5 0 0 1 1069 3466 L 1069 3603  A 5 5 0 0 1 1064 3608 L 418 3608  A 5 5 0 0 1 413 3603 L 413 3466  Z " fill-rule="nonzero" fill="#ffffff" stroke="none" />
    <path d="M 412.5 3466  A 5.5 5.5 0 0 1 418 3460.5 L 1064 3460.5  A 5.5 5.5 0 0 1 1069.5 3466 L 1069.5 3603  A 5.5 5.5 0 0 1 1064 3608.5 L 418 3608.5  A 5.5 5.5 0 0 1 412.5 3603 L 412.5 3466  Z " stroke-width="1" stroke-dasharray="3,1" stroke="#d7d7d7" fill="none" stroke-dashoffset="0.5" />
  </g>
</svg>