<?xml version="1.0" encoding="utf-8"?>
<svg version="1.1" xmlns:xlink="http://www.w3.org/1999/xlink" width="13px" height="14px" xmlns="http://www.w3.org/2000/svg">
  <g transform="matrix(1 0 0 1 -383 -697 )">
    <path d="M 4.644176136363637 11.584635416666668  C 4.699573863636363 11.529947916666668  4.7272727272727275 11.460069444444443  4.7272727272727275 11.375  L 4.7272727272727275 4.958333333333333  C 4.7272727272727275 4.873263888888889  4.699573863636363 4.803385416666667  4.644176136363637 4.748697916666667  C 4.588778409090909 4.694010416666667  4.517992424242425 4.666666666666667  4.431818181818182 4.666666666666667  L 3.8409090909090913 4.666666666666667  C 3.754734848484849 4.666666666666667  3.683948863636364 4.694010416666667  3.6285511363636362 4.748697916666667  C 3.5731534090909087 4.803385416666667  3.545454545454545 4.873263888888889  3.545454545454545 4.958333333333333  L 3.545454545454545 11.375  C 3.545454545454545 11.460069444444443  3.5731534090909087 11.529947916666668  3.6285511363636362 11.584635416666668  C 3.683948863636364 11.639322916666668  3.754734848484849 11.666666666666668  3.8409090909090913 11.666666666666668  L 4.431818181818182 11.666666666666668  C 4.517992424242425 11.666666666666668  4.588778409090909 11.639322916666668  4.644176136363637 11.584635416666668  Z M 7.0078125 11.584635416666668  C 7.0632102272727275 11.529947916666668  7.09090909090909 11.460069444444443  7.09090909090909 11.375  L 7.09090909090909 4.958333333333333  C 7.09090909090909 4.873263888888889  7.0632102272727275 4.803385416666667  7.0078125 4.748697916666667  C 6.9524147727272725 4.694010416666667  6.881628787878789 4.666666666666667  6.795454545454545 4.666666666666667  L 6.204545454545455 4.666666666666667  C 6.118371212121213 4.666666666666667  6.0475852272727275 4.694010416666667  5.9921875 4.748697916666667  C 5.9367897727272725 4.803385416666667  5.909090909090909 4.873263888888889  5.909090909090909 4.958333333333333  L 5.909090909090909 11.375  C 5.909090909090909 11.460069444444443  5.9367897727272725 11.529947916666668  5.9921875 11.584635416666668  C 6.0475852272727275 11.639322916666668  6.118371212121213 11.666666666666668  6.204545454545455 11.666666666666668  L 6.795454545454545 11.666666666666668  C 6.881628787878789 11.666666666666668  6.9524147727272725 11.639322916666668  7.0078125 11.584635416666668  Z M 9.371448863636363 11.584635416666668  C 9.42684659090909 11.529947916666668  9.454545454545455 11.460069444444443  9.454545454545455 11.375  L 9.454545454545455 4.958333333333333  C 9.454545454545455 4.873263888888889  9.42684659090909 4.803385416666667  9.371448863636363 4.748697916666667  C 9.316051136363637 4.694010416666667  9.245265151515152 4.666666666666667  9.15909090909091 4.666666666666667  L 8.568181818181818 4.666666666666667  C 8.482007575757576 4.666666666666667  8.41122159090909 4.694010416666667  8.355823863636363 4.748697916666667  C 8.300426136363637 4.803385416666667  8.272727272727273 4.873263888888889  8.272727272727273 4.958333333333333  L 8.272727272727273 11.375  C 8.272727272727273 11.460069444444443  8.300426136363637 11.529947916666668  8.355823863636363 11.584635416666668  C 8.41122159090909 11.639322916666668  8.482007575757576 11.666666666666668  8.568181818181818 11.666666666666668  L 9.15909090909091 11.666666666666668  C 9.245265151515152 11.666666666666668  9.316051136363637 11.639322916666668  9.371448863636363 11.584635416666668  Z M 4.884232954545455 1.2669270833333328  L 4.431818181818182 2.333333333333333  L 8.568181818181818 2.333333333333333  L 8.125 1.2669270833333328  C 8.08191287878788 1.2122395833333328  8.029592803030303 1.1788194444444438  7.9680397727272725 1.1666666666666672  L 5.041193181818182 1.1666666666666672  C 4.979640151515151 1.1788194444444438  4.927320075757576 1.2122395833333328  4.884232954545455 1.2669270833333328  Z M 12.91690340909091 2.415364583333333  C 12.972301136363637 2.470052083333333  13 2.5399305555555545  13 2.625  L 13 3.208333333333333  C 13 3.293402777777777  12.972301136363637 3.36328125  12.91690340909091 3.41796875  C 12.861505681818182 3.47265625  12.790719696969699 3.5  12.704545454545455 3.5  L 11.818181818181818 3.5  L 11.818181818181818 12.140625  C 11.818181818181818 12.644965277777777  11.673532196969699 13.080946180555557  11.384232954545455 13.448567708333332  C 11.094933712121213 13.81618923611111  10.74715909090909 14  10.34090909090909 14  L 2.659090909090909 14  C 2.252840909090909 14  1.9050662878787883 13.822265625  1.6157670454545454 13.466796875  C 1.3264678030303032 13.111328125  1.1818181818181819 12.68142361111111  1.1818181818181819 12.177083333333332  L 1.1818181818181819 3.5  L 0.29545454545454547 3.5  C 0.20928030303030304 3.5  0.1384943181818182 3.47265625  0.08309659090909091 3.41796875  C 0.027698863636363633 3.36328125  0 3.293402777777777  0 3.208333333333333  L 0 2.625  C 0 2.5399305555555545  0.027698863636363633 2.470052083333333  0.08309659090909091 2.415364583333333  C 0.1384943181818182 2.360677083333333  0.20928030303030304 2.333333333333333  0.29545454545454547 2.333333333333333  L 3.1484375 2.333333333333333  L 3.7947443181818183 0.8111979166666672  C 3.887073863636364 0.5863715277777766  4.053267045454546 0.39496527777777657  4.293323863636363 0.23697916666666718  C 4.5333806818181825 0.07899305555555469  4.776515151515151 0  5.0227272727272725 0  L 7.9772727272727275 0  C 8.22348484848485 0  8.466619318181818 0.07899305555555469  8.706676136363637 0.23697916666666718  C 8.946732954545455 0.39496527777777657  9.112926136363637 0.5863715277777766  9.205255681818182 0.8111979166666672  L 9.8515625 2.333333333333333  L 12.704545454545455 2.333333333333333  C 12.790719696969699 2.333333333333333  12.861505681818182 2.360677083333333  12.91690340909091 2.415364583333333  Z " fill-rule="nonzero" fill="#000000" stroke="none" transform="matrix(1 0 0 1 383 697 )" />
  </g>
</svg>