<svg xmlns="http://www.w3.org/2000/svg" viewBox="0 0 100 100" width="100" height="100">
    <path d="M6.82 87.06h15.91V48.42L0 31.38v48.86c0 3.77 3.06 6.82 6.82 6.82" fill="#4285f4"/>
    <path d="M77.27 87.06h15.91c3.77 0 6.82-3.06 6.82-6.82V31.38L77.27 48.43" fill="#34a853"/>
    <path d="M77.27 18.88v29.55L100 31.38v-9.09c0-8.43-9.63-13.24-16.36-8.18" fill="#fbbc04"/>
    <path d="M22.73 48.42V18.88L50 39.33l27.27-20.45v29.55L50 68.88" fill="#ea4335"/>
    <path d="M0 22.29v9.09l22.73 17.05V18.88l-6.36-4.77C9.61 9.05 0 13.86 0 22.29" fill="#c5221f"/>
</svg>
