<?xml version="1.0" encoding="utf-8"?>
<svg version="1.1" xmlns:xlink="http://www.w3.org/1999/xlink" width="1044px" height="161px" xmlns="http://www.w3.org/2000/svg">
  <defs>
    <filter x="325px" y="2403px" width="1044px" height="161px" filterUnits="userSpaceOnUse" id="filter143">
      <feOffset dx="0" dy="-1" in="SourceAlpha" result="shadowOffsetInner" />
      <feGaussianBlur stdDeviation="27" in="shadowOffsetInner" result="shadowGaussian" />
      <feComposite in2="shadowGaussian" operator="atop" in="SourceAlpha" result="shadowComposite" />
      <feColorMatrix type="matrix" values="0 0 0 0 0.6666666666666666  0 0 0 0 0.6666666666666666  0 0 0 0 0.6666666666666666  0 0 0 0.34901960784313724 0  " in="shadowComposite" />
    </filter>
    <g id="widget144">
      <path d="M 1.5 0  L 1.5 45.21739130434783  C 0.5005353319057816 48.69913043478261  2.923126338329764 51.43478260869565  6.006423982869379 51.5  L 928.9935760171305 51.5  C 932.0768736616702 51.43478260869565  934.4994646680942 48.69913043478261  934.5 45.21739130434783  L 934.5 0  L 1.5 0  Z " fill-rule="nonzero" fill="#ffffff" stroke="none" transform="matrix(1 0 0 1 379 2458 )" />
      <path d="M 1.5 0  L 1.5 45.21739130434783  C 0.5005353319057816 48.69913043478261  2.923126338329764 51.43478260869565  6.006423982869379 51.5  L 928.9935760171305 51.5  C 932.0768736616702 51.43478260869565  934.4994646680942 48.69913043478261  934.5 45.21739130434783  L 934.5 0  " stroke-width="1" stroke="#aaaaaa" fill="none" transform="matrix(1 0 0 1 379 2458 )" />
    </g>
  </defs>
  <g transform="matrix(1 0 0 1 -325 -2403 )">
    <use xlink:href="#widget144" filter="url(#filter143)" />
    <use xlink:href="#widget144" />
  </g>
</svg>