<svg id="a" xmlns="http://www.w3.org/2000/svg" viewBox="0 0 100 100" width="100" height="100">
    <defs>
        <style>
            .b{fill:#0078d4}.f,.g{opacity:.1;isolation:isolate}.g{opacity:.2}
        </style>
    </defs>
    <path d="M93.44 6.58H71.36c-1.67 0-3.28.67-4.46 1.85L14.76 60.56c-1.18 1.18-1.85 2.79-1.85 4.46V87.1c0 3.49 2.83 6.31 6.31 6.31H41.3c1.67 0 3.28-.67 4.46-1.85l52.13-52.12c1.18-1.18 1.85-2.79 1.85-4.46V12.9c0-3.49-2.83-6.31-6.31-6.31z" fill="#28a8ea"/>
    <path class="b" d="M93.44 93.42H71.36c-1.67 0-3.28-.67-4.46-1.85L56.34 81.01V61.29c0-6.23 5.05-11.29 11.29-11.29h19.72l10.56 10.56c1.18 1.18 1.85 2.79 1.85 4.46V87.1c0 3.49-2.83 6.31-6.31 6.31z"/>
    <path d="M19.23 6.58h22.08c1.67 0 3.28.67 4.46 1.85l10.56 10.56v19.72c0 6.23-5.05 11.29-11.29 11.29H25.32L14.76 39.44c-1.18-1.18-1.85-2.79-1.85-4.46V12.9c0-3.49 2.83-6.31 6.31-6.31z" fill="#50d9ff"/>
    <path class="g" d="M52.71 28.89v47.65c0 .24-.02.49-.07.72-.34 2.02-2.09 3.5-4.14 3.49H12.91V24.67H48.5c2.32 0 4.21 1.88 4.22 4.2v.01z"/>
    <path class="f" d="M54.52 28.89v44.03c-.03 3.31-2.71 5.99-6.02 6.02H12.91V22.86H48.5c3.32.01 6.01 2.7 6.02 6.02z"/>
    <path class="g" d="M52.71 28.89v44.03c0 2.32-1.88 4.21-4.2 4.22h-35.6V24.67H48.5c2.32 0 4.21 1.88 4.22 4.2v.01z"/>
    <path class="f" d="M50.9 28.89v44.03c0 2.32-1.88 4.21-4.2 4.22H12.91V24.67h33.78c2.32 0 4.21 1.88 4.22 4.2v.01z"/>
    <rect class="b" x=".25" y="24.67" width="50.65" height="50.65" rx="4.22" ry="4.22"/>
    <path d="M33.87 40.74H22.03v6.93h11.12v4.44H22.03v7.19h12.48v4.42H16.65V36.28h17.22v4.46z" fill="#fff"/>
</svg>
