<svg id="a" xmlns="http://www.w3.org/2000/svg" viewBox="0 0 100 100" width="100" height="100">
    <defs>
        <style>
            .d{fill:#0078d4}.k{fill:#28a8ea}.p,.q{isolation:isolate}.q{opacity:.1}.p{opacity:.05}.q{fill:#0a2767}
        </style>
        <linearGradient id="b" x1="8.89" y1="-1245.48" x2="42.3" y2="-1303.35" gradientTransform="matrix(1 0 0 -1 0 -1224.38)" gradientUnits="userSpaceOnUse">
            <stop offset="0" stop-color="#1784d9"/>
            <stop offset=".5" stop-color="#107ad5"/>
            <stop offset="1" stop-color="#0a63c9"/>
        </linearGradient>
    </defs>
    <path d="M99.99 52.02c0 .14-.02.28-.06.41 0 .06-.02.13-.05.19v.02c-.01.06-.03.11-.06.17-.03.08-.07.16-.12.24-.19.35-.48.64-.83.83l-3.65 2.06-.31.18-3.89 2.19-.9.5-16.93 9.58-.33.19-6.45 3.65-.8.45-.79.45-.4.23c-.13.07-.27.15-.42.23-.02 0-.02.02-.04.02-.29.15-.6.27-.92.34-.39.1-.79.15-1.19.15-.74 0-1.47-.16-2.13-.49-.11-.06-.22-.13-.33-.18-.04-.02-.08-.05-.13-.07l-5.05-2.86-.68-.39-.49-.28-.1-.06-.37-.21-.06-.03-.17-.09-.12-.07-.13-.07-.16-.09-.19-.1-.09-.06-.02-.02-.25-.14-.22-.13-.06-.03-.28-.16-14.26-8.06-3-1.7-.9-.5-3.89-2.19-.41-.24-3.55-2.01c-.35-.19-.64-.47-.83-.83-.05-.08-.09-.16-.12-.24l-.17-.78c0-.75.4-1.44 1.05-1.81l.02-.02s.03-.02.05-.02l3.55-2 .42-.24 16.79-9.49 1.09-.61 4.18-2.35.28-.17.06-.03.22-.13.25-.14.02-.02.09-.06.19-.1.16-.09.13-.07.12-.06.17-.09.06-.03.37-.21.1-.06.49-.28.68-.39 5.05-2.85c.16-.09.31-.17.46-.25 1.34-.66 2.9-.66 4.24 0 .16.08.31.17.46.25l8.45 4.77 5.26 2.97 16.79 9.49.31.18 3.65 2.06s.04.02.06.02l.02.02c.65.37 1.06 1.06 1.05 1.81z" fill="#123b6d"/>
    <path class="k" d="M73.23 17.35H51.18v20.48L73.23 58.3h22.05V37.83L73.23 17.35z"/>
    <path d="M73.23 58.3v20.47H51.18l-.39-.33-.06-.05-.07-.07-.14-.12-.27-.23-.02-.02-.35-.3-.09-.08-.04-.03-.04-.04-.46-.39-.09-.09-.06-.06-.04-.03-.09-.08-.24-.2-.47-.39-19.1-15.63-.79-.65V37.8h22.84l.47.44.12.11.35.32.24.22.22.2.37.35.1.09.49.46 19.69 18.28z" fill="#0364b8"/>
    <path fill="#14447d" d="M29.14 58.3h22.05v20.47H29.14z"/>
    <path class="d" d="M73.23 58.3h22.05v20.47H73.23z"/>
    <path fill="#50d9ff" d="M73.23 17.35h22.05v20.47H73.23z"/>
    <path class="d" d="M28.35 17.35h22.84v20.47H28.35zM51.18 37.83h22.05V58.3H51.18z"/>
    <path d="M32.58 5.54h58.46c2.34 0 4.24 1.9 4.24 4.24v7.58H28.35V9.78c0-2.34 1.9-4.24 4.24-4.24z" fill="#0358a7"/>
    <path class="q" d="M95.28 52.65L62.95 70.19l-.15.09c-.05.03-.1.06-.16.08-.06.03-.12.05-.18.07l-1.06-.59-.13-.07c-.06-.03-.13-.06-.19-.1l-.08-.05-6.4-3.56-.52-.3-.43-.24-.94-.53-24.36-13.54v25.4h66.93V52.64z"/>
    <path class="q" d="M95.28 53.44L62.95 70.98l-.15.09c-.05.03-.1.06-.16.08-.06.03-.12.05-.18.07l-1.06-.59-.13-.07c-.06-.03-.13-.06-.19-.1l-.08-.05-6.4-3.56-.52-.3-.43-.24-.94-.53-24.36-13.54v25.4h66.93V53.43z"/>
    <path class="q" d="M95.28 54.23L62.95 71.77l-.15.09c-.05.03-.1.06-.16.08-.06.03-.12.05-.18.07l-1.06-.59-.13-.07c-.06-.03-.13-.06-.19-.1L61 71.2l-6.4-3.56-.52-.3-.43-.24-.94-.53-24.36-13.54v25.4h66.93V54.22z"/>
    <path class="q" d="M95.28 55.02L62.95 72.56l-.15.09c-.05.03-.1.06-.16.08-.06.03-.12.05-.18.07l-1.06-.59-.13-.07c-.06-.03-.13-.06-.19-.1l-.08-.05-6.4-3.56-.52-.3-.43-.24-.94-.53-24.36-13.54v25.4h66.93V55.01z"/>
    <path d="M98.93 53.77l-.04.02h-.01L64.39 72.51c-.15.09-.3.18-.46.25-1.34.63-2.9.63-4.24 0-.16-.08-.31-.16-.46-.25l1.62 11.67 34.38 10.27c1 0 1.98-.3 2.81-.87 1.22-.83 1.96-2.2 1.97-3.68V52.02c0 .73-.42 1.4-1.07 1.75z" fill="#1490df"/>
    <path class="p" d="M65.73 71.82l-1.28.7c-.15.09-.3.18-.46.25-1.34.63-2.9.63-4.24 0-.16-.08-.31-.16-.46-.25l1.62 11.67 34.38 10.27c1 0 1.98-.3 2.81-.87.92-.63 1.57-1.57 1.84-2.64l-34.2-19.13z"/>
    <path class="p" d="M99.67 91.7L64.91 72.26l-.46.25c-.15.09-.3.18-.46.25-1.34.63-2.9.63-4.24 0-.16-.08-.31-.16-.46-.25l1.62 11.67 34.38 10.27c1 0 1.98-.3 2.81-.87.69-.47 1.23-1.13 1.58-1.89z"/>
    <path class="p" d="M99.29 92.38L64.11 72.71l-.11.06c-1.34.63-2.9.63-4.24 0-.16-.08-.31-.16-.46-.25l1.62 11.67L95.3 94.46c1 0 1.98-.3 2.81-.87.47-.33.87-.73 1.19-1.21z"/>
    <path class="p" d="M98.78 93L63.45 73.24l-.18-.09-.14-.08c-1.13.3-2.33.19-3.39-.31-.16-.08-.31-.16-.46-.25l1.62 11.67 34.38 10.27c1 0 1.98-.3 2.81-.87.25-.17.48-.37.69-.58z"/>
    <path class="k" d="M98.14 93.55c-.1.07-.2.14-.31.2s-.21.12-.32.17c-.13.06-.25.12-.38.17h-.02c-.14.05-.28.1-.43.14-.16.06-.32.09-.49.12-.04.01-.07.02-.11.02-.09.02-.17.02-.27.03-.17.02-.34.03-.51.03H28.47c-2.61.03-4.76-2.06-4.79-4.68V52.02l1.09.61h.02s0 .02.02.02l3.55 1.98 6.63 3.69 16.21 9.01.47.27.12.06.35.2.24.13.22.12.37.21.1.06.49.27 5.86 3.26c.15.09.31.18.46.26l1.95 1.09 1.24.69 5.25 2.94 1.41.79 1.41.79.59.33.82.46 25.59 14.32z"/>
    <path class="p" d="M53.55 28.38v46.95c0 .53-.1 1.05-.29 1.54-.11.28-.25.54-.41.79-.19.29-.42.56-.68.79-.13.12-.26.23-.4.33-.25.18-.52.33-.81.46-.52.22-1.08.33-1.65.33H23.62v-3.15h.06V52.03c0-.75.4-1.44 1.05-1.81l.02-.02s.03-.02.05-.02l3.55-2V23.65h20.96c.66 0 1.31.19 1.87.54 1.45.9 2.34 2.48 2.36 4.18z"/>
    <path d="M52.96 28.46v46.08c0 .83-.23 1.64-.68 2.33-.18.29-.41.56-.66.79-.13.13-.28.25-.43.35-.16.12-.34.23-.52.31-.08.05-.16.08-.24.12-.52.22-1.08.33-1.64.33H23.62v-2.36h.06V52.02c0-.75.4-1.44 1.05-1.81l.02-.02s.03-.02.05-.02l3.55-2V23.85h20.37c.9.01 1.78.34 2.46.92 1.11.91 1.75 2.26 1.77 3.69z" style="isolation:isolate" opacity=".08"/>
    <path d="M52.36 28.53v45.22c.01 1.12-.41 2.2-1.18 3.01-.04.04-.08.08-.12.11-.33.33-.73.6-1.16.79h-.02c-.51.21-1.05.32-1.61.32H23.62v-1.57h.06V52.02c0-.75.4-1.44 1.05-1.81l.02-.02s.03-.02.05-.02l3.55-2V24.05h19.78c1.18.02 2.29.54 3.06 1.43.75.84 1.17 1.92 1.18 3.05z" style="isolation:isolate" opacity=".1"/>
    <path d="M51.77 28.6v44.36c0 .79-.2 1.57-.59 2.26-.41.73-1.04 1.3-1.8 1.65-.09.04-.2.08-.3.11-.42.15-.87.22-1.32.22H23.62v-.79h.06V52.02c0-.75.4-1.44 1.05-1.81l.02-.02s.03-.02.05-.02l3.55-2V24.24h19.19c1.52.02 2.91.85 3.65 2.17.39.66.59 1.41.59 2.18z" style="isolation:isolate" opacity=".12"/>
    <path d="M51.18 28.68v43.5c.09 1.89-1.13 3.59-2.95 4.11-.32.09-.66.13-.99.13H23.68V52.03c0-.75.4-1.44 1.05-1.81l.02-.02s.03-.02.05-.02l3.55-2V24.44h18.6c2.34 0 4.24 1.9 4.24 4.24z" style="isolation:isolate" opacity=".2"/>
    <rect y="24.44" width="51.18" height="51.18" rx="4.24" ry="4.24" fill="url(#b)"/>
    <path d="M14.21 43.06c.98-2.08 2.55-3.82 4.52-4.99 2.18-1.25 4.67-1.87 7.19-1.8 2.33-.05 4.63.54 6.65 1.71 1.9 1.13 3.43 2.79 4.4 4.77 1.06 2.19 1.59 4.59 1.54 7.02.05 2.54-.49 5.05-1.59 7.35-1 2.05-2.57 3.77-4.53 4.94-2.1 1.2-4.48 1.81-6.9 1.75-2.38.06-4.73-.54-6.8-1.73-1.91-1.13-3.46-2.79-4.46-4.78-1.07-2.15-1.6-4.53-1.56-6.94-.05-2.52.47-5.01 1.53-7.3zm4.82 11.73c.52 1.31 1.4 2.45 2.54 3.29 1.16.81 2.56 1.23 3.97 1.2 1.51.06 3-.37 4.24-1.23 1.13-.83 1.99-1.98 2.47-3.3.54-1.47.81-3.02.79-4.59.02-1.58-.23-3.15-.74-4.65-.45-1.34-1.28-2.53-2.38-3.41-1.21-.9-2.7-1.36-4.21-1.3-1.45-.04-2.88.39-4.07 1.21-1.16.84-2.06 1.99-2.6 3.32-1.18 3.05-1.19 6.42-.02 9.47z" fill="#fff"/>
</svg>
