<?xml version="1.0" encoding="utf-8"?>
<svg version="1.1" xmlns:xlink="http://www.w3.org/1999/xlink" width="24px" height="15px" xmlns="http://www.w3.org/2000/svg">
  <g transform="matrix(1 0 0 1 -284 -664 )">
    <path d="M 0.59765625 10.412109375  C 0.19921875 9.486328125  0 8.515624999999998  0 7.5  C 0 6.484374999999999  0.19921875 5.513671875  0.59765625 4.587890625000001  C 0.9960937500000002 3.662109375  1.529296875 2.8652343750000004  2.197265625 2.197265625  C 2.8652343750000004 1.5292968749999996  3.662109375 0.99609375  4.587890625 0.5976562499999993  C 5.513671875000001 0.19921875000000033  6.484375 0  7.5 0  L 16.5 0  C 17.515625 0  18.486328125 0.19921875000000033  19.412109375 0.5976562499999993  C 20.337890625 0.99609375  21.134765625 1.5292968749999996  21.802734375 2.197265625  C 22.470703125 2.8652343750000004  23.00390625 3.662109375  23.40234375 4.587890625000001  C 23.80078125 5.513671875  24 6.484374999999999  24 7.5  C 24 8.515624999999998  23.80078125 9.486328125  23.40234375 10.412109375  C 23.00390625 11.337890625  22.470703125 12.134765625  21.802734375 12.802734375  C 21.134765625 13.470703125  20.337890625 14.00390625  19.412109375 14.40234375  C 18.486328125 14.80078125  17.515625 15  16.5 15  L 7.5 15  C 6.484375 15  5.513671875000001 14.80078125  4.587890625 14.40234375  C 3.662109375 14.00390625  2.8652343750000004 13.470703125  2.197265625 12.802734375  C 1.529296875 12.134765625  0.9960937500000002 11.337890625  0.59765625 10.412109375  Z M 14.173828125 13.025390625  C 14.912109375 13.341796875  15.6875 13.5  16.5 13.5  C 17.3125 13.5  18.087890625 13.341796875  18.826171875 13.025390625  C 19.564453125000004 12.708984375  20.203125000000004 12.28125  20.7421875 11.7421875  C 21.281250000000004 11.203125  21.708984375000004 10.564453125  22.025390625 9.826171875  C 22.341796875000004 9.087890625  22.500000000000004 8.312499999999998  22.5 7.5  C 22.500000000000004 6.6875  22.341796875000004 5.912109375  22.025390625 5.173828125000001  C 21.708984375000004 4.435546874999999  21.281250000000004 3.796874999999999  20.7421875 3.2578124999999996  C 20.203125000000004 2.7187500000000004  19.564453125000004 2.2910156249999996  18.826171875 1.9746093749999993  C 18.087890625 1.6582031250000007  17.3125 1.4999999999999996  16.5 1.4999999999999996  C 15.6875 1.4999999999999996  14.912109375 1.6582031250000007  14.173828125 1.9746093749999993  C 13.435546875 2.2910156249999996  12.796875 2.7187500000000004  12.2578125 3.2578124999999996  C 11.71875 3.796874999999999  11.291015625 4.435546874999999  10.974609375 5.173828125000001  C 10.658203125 5.912109375  10.5 6.6875  10.5 7.5  C 10.5 8.312499999999998  10.658203125 9.087890625  10.974609375 9.826171875  C 11.291015625 10.564453125  11.71875 11.203125  12.2578125 11.7421875  C 12.796875 12.28125  13.435546875 12.708984375  14.173828125 13.025390625  Z " fill-rule="nonzero" fill="#0578f8" stroke="none" transform="matrix(1 0 0 1 284 664 )" />
  </g>
</svg>