<?xml version="1.0" encoding="utf-8"?>
<svg version="1.1" xmlns:xlink="http://www.w3.org/1999/xlink" width="40px" height="40px" xmlns="http://www.w3.org/2000/svg">
  <g transform="matrix(1 0 0 1 -999 -14 )">
    <path d="M 1019 14  C 1030.2 14  1039 22.799999999999997  1039 34  C 1039 45.2  1030.2 54  1019 54  C 1007.8 54  999 45.2  999 34  C 999 22.799999999999997  1007.8 14  1019 14  Z " fill-rule="nonzero" fill="#ffffff" stroke="none" />
    <path d="M 1019 14.5  C 1029.92 14.5  1038.5 23.08  1038.5 34  C 1038.5 44.92  1029.92 53.5  1019 53.5  C 1008.08 53.5  999.5 44.92  999.5 34  C 999.5 23.08  1008.08 14.5  1019 14.5  Z " stroke-width="1" stroke="#797979" fill="none" />
  </g>
</svg>