<?xml version="1.0" encoding="utf-8"?>
<svg version="1.1" xmlns:xlink="http://www.w3.org/1999/xlink" width="13px" height="8px" xmlns="http://www.w3.org/2000/svg">
  <g transform="matrix(1 0 0 1 -902 -105 )">
    <path d="M 12.869739478957916 0.8247422680412368  C 12.956579826319306 0.9163802978235944  13 1.0217640320733095  13 1.1408934707903784  C 13 1.2600229095074447  12.956579826319306 1.365406643757158  12.869739478957916 1.457044673539519  L 6.799599198396793 7.86254295532646  C 6.712758851035405 7.954180985108818  6.612892451569807 8  6.5 8  C 6.387107548430195 8  6.287241148964597 7.954180985108818  6.200400801603206 7.86254295532646  L 0.13026052104208416 1.457044673539519  C 0.04342017368069485 1.365406643757158  0 1.2600229095074447  0 1.1408934707903784  C 0 1.0217640320733095  0.04342017368069485 0.9163802978235944  0.13026052104208416 0.8247422680412368  L 0.781563126252505 0.13745704467353992  C 0.8684034736138947 0.04581901489117879  0.9682698730794924 0  1.0811623246492985 0  C 1.1940547762191052 0  1.2939211756847029 0.04581901489117879  1.3807615230460921 0.13745704467353992  L 6.5 5.5395189003436425  L 11.619238476953909 0.13745704467353992  C 11.706078824315298 0.04581901489117879  11.805945223780896 0  11.918837675350701 0  C 12.03173012692051 0  12.131596526386106 0.04581901489117879  12.218436873747496 0.13745704467353992  L 12.869739478957916 0.8247422680412368  Z " fill-rule="nonzero" fill="#000000" stroke="none" transform="matrix(1 0 0 1 902 105 )" />
  </g>
</svg>