<?xml version="1.0" encoding="utf-8"?>
<svg version="1.1" xmlns:xlink="http://www.w3.org/1999/xlink" width="18px" height="15px" xmlns="http://www.w3.org/2000/svg">
  <g transform="matrix(1 0 0 1 -899 -1758 )">
    <path d="M 14.052455357142858 8.837890624999998  C 14.112723214285715 8.896484374999998  14.142857142857142 8.971354166666664  14.142857142857142 9.062500000000002  L 14.142857142857142 12.1875  C 14.142857142857142 12.962239583333332  13.859933035714288 13.624674479166668  13.294084821428573 14.1748046875  C 12.72823660714286 14.724934895833332  12.046875 15  11.25 15  L 2.8928571428571432 15  C 2.0959821428571432 15  1.4146205357142858 14.724934895833332  0.8487723214285714 14.1748046875  C 0.28292410714285715 13.624674479166668  0 12.962239583333332  0 12.1875  L 0 4.062500000000001  C 0 3.287760416666665  0.28292410714285715 2.6253255208333326  0.8487723214285714 2.0751953124999996  C 1.4146205357142858 1.5250651041666647  2.0959821428571432 1.2500000000000004  2.8928571428571432 1.2500000000000004  L 9.964285714285715 1.2500000000000004  C 10.058035714285715 1.2500000000000004  10.135044642857142 1.2792968750000004  10.1953125 1.3378906250000004  C 10.255580357142858 1.3964843750000004  10.285714285714285 1.4713541666666652  10.285714285714285 1.5624999999999996  L 10.285714285714285 2.1875000000000004  C 10.285714285714285 2.278645833333333  10.255580357142858 2.3535156249999996  10.1953125 2.4121093749999996  C 10.135044642857142 2.4707031249999996  10.058035714285715 2.4999999999999996  9.964285714285715 2.4999999999999996  L 2.8928571428571432 2.4999999999999996  C 2.4508928571428577 2.4999999999999996  2.0725446428571432 2.6529947916666647  1.7578125 2.958984375  C 1.4430803571428572 3.264973958333332  1.2857142857142856 3.6328125  1.2857142857142856 4.062500000000001  L 1.2857142857142856 12.1875  C 1.2857142857142856 12.6171875  1.4430803571428572 12.985026041666664  1.7578125 13.291015625  C 2.0725446428571432 13.597005208333332  2.4508928571428577 13.75  2.8928571428571432 13.75  L 11.25 13.75  C 11.691964285714285 13.75  12.070312500000002 13.597005208333332  12.385044642857142 13.291015625  C 12.699776785714288 12.985026041666664  12.857142857142858 12.6171875  12.857142857142858 12.1875  L 12.857142857142858 9.062500000000002  C 12.857142857142858 8.971354166666664  12.887276785714285 8.896484374999998  12.947544642857142 8.837890624999998  C 13.0078125 8.779296874999998  13.084821428571429 8.749999999999998  13.178571428571427 8.749999999999998  L 13.821428571428573 8.749999999999998  C 13.915178571428573 8.749999999999998  13.9921875 8.779296874999998  14.052455357142858 8.837890624999998  Z M 17.809151785714285 0.18554687499999944  C 17.93638392857143 0.30924479166666463  18 0.45572916666666463  18 0.6249999999999994  L 18 5.625  C 18 5.794270833333333  17.93638392857143 5.940755208333333  17.809151785714285 6.064453125  C 17.681919642857146 6.188151041666667  17.53125 6.249999999999999  17.357142857142858 6.249999999999999  C 17.183035714285715 6.249999999999999  17.032366071428573 6.188151041666667  16.905133928571427 6.064453125  L 15.137276785714285 4.345703124999999  L 8.588169642857142 10.712890624999998  C 8.521205357142858 10.777994791666664  8.444196428571429 10.810546875  8.357142857142858 10.810546875  C 8.270089285714286 10.810546875  8.193080357142858 10.777994791666664  8.126116071428571 10.712890624999998  L 6.9810267857142865 9.599609374999998  C 6.914062500000001 9.534505208333334  6.880580357142858 9.459635416666668  6.880580357142858 9.375  C 6.880580357142858 9.290364583333332  6.914062500000001 9.215494791666666  6.9810267857142865 9.150390625000002  L 13.530133928571427 2.783203125  L 11.762276785714285 1.0644531249999996  C 11.635044642857146 0.9407552083333326  11.571428571428573 0.7942708333333326  11.571428571428573 0.6249999999999994  C 11.571428571428573 0.45572916666666463  11.635044642857146 0.30924479166666463  11.762276785714285 0.18554687499999944  C 11.889508928571429 0.06184895833333426  12.040178571428571 0  12.214285714285715 0  L 17.357142857142858 0  C 17.53125 0  17.681919642857146 0.06184895833333426  17.809151785714285 0.18554687499999944  Z " fill-rule="nonzero" fill="#aaaaaa" stroke="none" transform="matrix(1 0 0 1 899 1758 )" />
  </g>
</svg>