<?xml version="1.0" encoding="utf-8"?>
<svg version="1.1" xmlns:xlink="http://www.w3.org/1999/xlink" width="20px" height="20px" xmlns="http://www.w3.org/2000/svg">
  <g transform="matrix(1 0 0 1 -1325 -2337 )">
    <path d="M 12.356770833333332 7.643229166666668  C 13.0078125 8.294270833333332  13.333333333333332 9.079861111111109  13.333333333333332 10  C 13.333333333333332 10.92013888888889  13.0078125 11.705729166666664  12.356770833333332 12.356770833333336  C 11.705729166666668 13.0078125  10.920138888888891 13.333333333333336  10 13.333333333333336  C 9.07986111111111 13.333333333333336  8.294270833333334 13.0078125  7.643229166666666 12.356770833333336  C 6.9921875 11.705729166666664  6.666666666666666 10.92013888888889  6.666666666666666 10  C 6.666666666666666 9.079861111111109  6.9921875 8.294270833333332  7.643229166666666 7.643229166666668  C 8.294270833333334 6.9921875  9.07986111111111 6.666666666666668  10 6.666666666666668  C 10.920138888888891 6.666666666666668  11.705729166666668 6.9921875  12.356770833333332 7.643229166666668  Z M 13.5546875 3.8671875  C 12.469618055555555 3.233506944444444  11.284722222222223 2.9166666666666674  10 2.9166666666666674  C 8.715277777777779 2.9166666666666674  7.5303819444444455 3.233506944444444  6.4453125 3.8671875  C 5.360243055555555 4.500868055555554  4.500868055555555 5.360243055555554  3.8671875 6.4453125  C 3.2335069444444446 7.530381944444445  2.916666666666667 8.715277777777777  2.916666666666667 10  C 2.916666666666667 11.284722222222223  3.2335069444444446 12.469618055555554  3.8671875 13.5546875  C 4.500868055555555 14.639756944444443  5.360243055555555 15.499131944444445  6.4453125 16.1328125  C 7.5303819444444455 16.766493055555557  8.715277777777779 17.083333333333332  10 17.083333333333332  C 11.284722222222223 17.083333333333332  12.469618055555555 16.766493055555557  13.5546875 16.1328125  C 14.639756944444446 15.499131944444445  15.499131944444446 14.639756944444443  16.1328125 13.5546875  C 16.766493055555557 12.469618055555554  17.083333333333332 11.284722222222223  17.083333333333332 10  C 17.083333333333332 8.715277777777777  16.766493055555557 7.530381944444445  16.1328125 6.4453125  C 15.499131944444446 5.360243055555554  14.639756944444446 4.500868055555554  13.5546875 3.8671875  Z M 18.658854166666668 4.98046875  C 19.552951388888886 6.512586805555554  20 8.185763888888886  20 10  C 20 11.81423611111111  19.552951388888886 13.487413194444443  18.658854166666668 15.01953125  C 17.764756944444446 16.551649305555557  16.551649305555557 17.764756944444443  15.01953125 18.658854166666668  C 13.487413194444446 19.55295138888889  11.81423611111111 20  10 20  C 8.18576388888889 20  6.512586805555555 19.55295138888889  4.98046875 18.658854166666668  C 3.4483506944444446 17.764756944444443  2.235243055555556 16.551649305555557  1.3411458333333335 15.01953125  C 0.44704861111111105 13.487413194444443  0 11.81423611111111  0 10  C 0 8.185763888888886  0.44704861111111105 6.512586805555554  1.3411458333333335 4.98046875  C 2.235243055555556 3.448350694444444  3.4483506944444446 2.2352430555555536  4.98046875 1.3411458333333326  C 6.512586805555555 0.4470486111111094  8.18576388888889 0  10 0  C 11.81423611111111 0  13.487413194444446 0.4470486111111094  15.01953125 1.3411458333333326  C 16.551649305555557 2.2352430555555536  17.764756944444446 3.448350694444444  18.658854166666668 4.98046875  Z " fill-rule="nonzero" fill="#d9001b" stroke="none" transform="matrix(1 0 0 1 1325 2337 )" />
  </g>
</svg>