<?xml version="1.0" encoding="utf-8"?>
<svg version="1.1" xmlns:xlink="http://www.w3.org/1999/xlink" width="40px" height="40px" xmlns="http://www.w3.org/2000/svg">
  <g transform="matrix(1 0 0 1 -2280 -1522 )">
    <path d="M 2300 1522  C 2311.2 1522  2320 1530.8  2320 1542  C 2320 1553.2  2311.2 1562  2300 1562  C 2288.8 1562  2280 1553.2  2280 1542  C 2280 1530.8  2288.8 1522  2300 1522  Z " fill-rule="nonzero" fill="#ffffff" stroke="none" />
    <path d="M 2300 1522.5  C 2310.92 1522.5  2319.5 1531.08  2319.5 1542  C 2319.5 1552.92  2310.92 1561.5  2300 1561.5  C 2289.08 1561.5  2280.5 1552.92  2280.5 1542  C 2280.5 1531.08  2289.08 1522.5  2300 1522.5  Z " stroke-width="1" stroke="#797979" fill="none" />
  </g>
</svg>